/* XPM */
static char *cat_up_2_xpm[] = {
/* width height num_colors chars_per_pixel */
"    64    64      256            2",
/* colors */
"`` c #742a81",
"`. c #5b276d",
"`# c #42195d",
"`a c #62784a",
"`b c #171a0f",
"`c c #4e5332",
"`d c #2a2640",
"`e c #243117",
"`f c #8d4953",
"`g c #fdffd6",
"`h c #e6daad",
"`i c #9f8965",
"`j c #5d286f",
"`k c #461b60",
"`l c #5d276f",
"`m c #461a60",
"`n c #451a5f",
"`o c #5d286e",
"`p c #752a82",
"`q c #752a81",
"`r c #5e286f",
"`s c #471b60",
"`t c #752b81",
"`u c #752b82",
"`v c #762b82",
"`w c #5f2870",
"`x c #481b61",
"`y c #302d21",
"`z c #762b83",
"`A c #491b62",
"`B c #5d276e",
"`C c #5c276e",
"`D c #5e2870",
"`E c #471b61",
"`F c #481b62",
"`G c #451a5e",
"`H c #431a5e",
"`I c #43195e",
"`J c #43195d",
"`K c #752b83",
"`L c #742a82",
"`M c #000000",
"`N c #000000",
"`O c #000000",
"`P c #000000",
"`Q c #000000",
"`R c #000000",
"`S c #000000",
"`T c #000000",
"`U c #000000",
"`V c #000000",
"`W c #000000",
"`X c #000000",
"`Y c #000000",
"`Z c #000000",
"`0 c #000000",
"`1 c #000000",
"`2 c #000000",
"`3 c #000000",
"`4 c #000000",
"`5 c #000000",
"`6 c #000000",
"`7 c #000000",
"`8 c #000000",
".` c #000000",
".. c #000000",
".# c #000000",
".a c #000000",
".b c #000000",
".c c #000000",
".d c #000000",
".e c #000000",
".f c #000000",
".g c #000000",
".h c #000000",
".i c #000000",
".j c #000000",
".k c #000000",
".l c #000000",
".m c #000000",
".n c #000000",
".o c #000000",
".p c #000000",
".q c #000000",
".r c #000000",
".s c #000000",
".t c #000000",
".u c #000000",
".v c #000000",
".w c #000000",
".x c #000000",
".y c #000000",
".z c #000000",
".A c #000000",
".B c #000000",
".C c #000000",
".D c #000000",
".E c #000000",
".F c #000000",
".G c #000000",
".H c #000000",
".I c #000000",
".J c #000000",
".K c #000000",
".L c #000000",
".M c #000000",
".N c #000000",
".O c #000000",
".P c #000000",
".Q c #000000",
".R c #000000",
".S c #000000",
".T c #000000",
".U c #000000",
".V c #000000",
".W c #000000",
".X c #000000",
".Y c #000000",
".Z c #000000",
".0 c #000000",
".1 c #000000",
".2 c #000000",
".3 c #000000",
".4 c #000000",
".5 c #000000",
".6 c #000000",
".7 c #000000",
".8 c #000000",
"#` c #000000",
"#. c #000000",
"## c #000000",
"#a c #000000",
"#b c #000000",
"#c c #000000",
"#d c #000000",
"#e c #000000",
"#f c #000000",
"#g c #000000",
"#h c #000000",
"#i c #000000",
"#j c #000000",
"#k c #000000",
"#l c #000000",
"#m c #000000",
"#n c #000000",
"#o c #000000",
"#p c #000000",
"#q c #000000",
"#r c #000000",
"#s c #000000",
"#t c #000000",
"#u c #000000",
"#v c #000000",
"#w c #000000",
"#x c #000000",
"#y c #000000",
"#z c #000000",
"#A c #000000",
"#B c #000000",
"#C c #000000",
"#D c #000000",
"#E c #000000",
"#F c #000000",
"#G c #000000",
"#H c #000000",
"#I c #000000",
"#J c #000000",
"#K c #000000",
"#L c #000000",
"#M c #000000",
"#N c #000000",
"#O c #000000",
"#P c #000000",
"#Q c #000000",
"#R c #000000",
"#S c #000000",
"#T c #000000",
"#U c #000000",
"#V c #000000",
"#W c #000000",
"#X c #000000",
"#Y c #000000",
"#Z c #000000",
"#0 c #000000",
"#1 c #000000",
"#2 c #000000",
"#3 c #000000",
"#4 c #000000",
"#5 c #000000",
"#6 c #000000",
"#7 c #000000",
"#8 c #000000",
"a` c #000000",
"a. c #000000",
"a# c #000000",
"aa c #000000",
"ab c #000000",
"ac c #000000",
"ad c #000000",
"ae c #000000",
"af c #000000",
"ag c #000000",
"ah c #000000",
"ai c #000000",
"aj c #000000",
"ak c #000000",
"al c #000000",
"am c #000000",
"an c #000000",
"ao c #000000",
"ap c #000000",
"aq c #000000",
"ar c #000000",
"as c #000000",
"at c #000000",
"au c #000000",
"av c #000000",
"aw c #000000",
"ax c #000000",
"ay c #000000",
"az c #000000",
"aA c #000000",
"aB c #000000",
"aC c #000000",
"aD c #000000",
"aE c #000000",
"aF c #000000",
"aG c #000000",
"aH c #000000",
"aI c #000000",
"aJ c #000000",
"aK c #000000",
"aL c #000000",
"aM c #000000",
"aN c #000000",
"aO c #000000",
"aP c #000000",
"aQ c #000000",
"aR c #000000",
"aS c #000000",
"aT c #000000",
"aU c #000000",
"aV c #000000",
"aW c #000000",
"aX c #000000",
"aY c #000000",
"aZ c #000000",
"a0 c #000000",
"a1 c #000000",
"a2 c #000000",
"a3 c #000000",
"a4 c #000000",
"a5 c #000000",
"a6 c #000000",
"a7 c #000000",
"a8 c #000000",
/* pixels */
"```````````.```#`.`.```````````````````````.```#`.`.```````````````````````.```#`.`.```````````````````````.```#`.`.`````````#`#",
"```````````````.```````````````````````````````.```````````````````````````````.```````````````````````````````.`````````````.`#",
"`````````````.`.`````````````````````````````.`.`````````````````````````````.`.`````````````````````````````.`.`````````````#`#",
"`````````````.`#`````````````````````a```````.`#`````````````````````````````.`#```````````a`````````````````.`#`````````````.`#",
"`````````````.`#`.```.`````````````b`a`a`````.`#`.```.```````````````````````.`#`.```.```a`a`b```````````````.`#`.```.```````.`#",
"`````````.`.`#`#`#`.```.```````````b`c`a`a`.`#`#`#`.```.`````````````````.`.`#`#`#`.```a`a`c`b```````````.`.`#`#`#`.```.`````.`d",
"`````.`.`#`#`#`#`#`#`#`#`#`#`.`.`b`c`c`c`a`a`#`#`#`#`#`#`#`#`.`.`````.`.`#`#`#`#`#`#`a`a`c`c`c`b`````.`.`#`#`#`#`#`#`#`#`#`#`d`d",
"```````````````````.`.`#`#`.`````b`c`c`c`a`a`a`````.`.`#`#`.```````````````````````a`a`a`c`c`c`b```````````````````.`.`#`#`.`#`#",
"```````````````````````.`#```````b`c`c`c`c`a`a`a```````.`#```````````````````````a`a`a`c`c`c`c`b```````````````````````.`#```#`#",
"`````````````````````````.`````b`e`c`c`c`c`c`a`a`a```````.`````````````````````a`a`a`c`c`c`c`c`e`b```````````````````````.```.`#",
"```````````.```````````.`.`````b`e`c`c`c`c`c`c`a`a`a`a`a`a`a`a`a`a`a`a`a`a`a`a`a`a`c`c`c`c`c`c`e`b`````````.```````````.`.```#`.",
"`````````.```.`````.```.`#`````b`e`c`c`c`c`c`c`c`c`a`a`a`a`a`a`a`a`a`a`a`a`a`a`c`c`c`c`c`c`c`c`e`b```````.```.`````.```.`#```.`#",
"```.`.`.`.`.`.`.`.`#`.`#`#`.```b`e`c`c`c`c`c`c`c`c`c`c`c`c`c`c`c`c`c`c`c`c`c`c`c`c`c`c`c`c`c`c`e`b`.`.`.`.`.`.`.`.`#`.`#`#`.`#`#",
"`.`.`.`#`.`.`#`#`#`#`#`#`#`#`#`b`e`c`c`c`c`c`c`c`c`c`c`c`c`c`c`c`c`c`c`c`c`c`c`c`c`c`c`c`c`c`c`e`b`.`.`#`.`.`#`#`#`#`#`#`#`#`#`d",
"`````````.`.`#`#`#`.`.`.```.```b`e`e`c`c`c`e`e`c`c`c`c`c`c`c`c`c`c`c`c`c`c`c`c`c`c`c`e`e`c`c`c`e`b```````.`.`#`#`#`.`.`.```.`.`#",
"```````.`````.`#`.```.```.`````b`e`e`e`e`e`e`c`c`c`c`c`c`c`c`c`c`c`c`c`c`c`c`c`c`c`c`c`e`e`e`e`e`b`````.`````.`#`.```.```.```#`#",
"```````````.```#`.`.```````````b`e`e`e`e`c`c`c`c`c`c`c`c`c`c`c`c`c`c`c`c`c`c`c`c`c`c`c`c`e`e`e`e`b`````````.```#`.`.`````````#`#",
"```````````````.`````````````````b`e`e`c`c`c`c`c`c`c`c`c`c`c`c`c`c`c`c`c`c`c`c`c`c`c`c`c`c`e`e`b```````````````.`````````````.`#",
"`````````````.`.`````````````````b`b`c`c`c`c`c`c`c`c`c`c`c`c`c`c`c`c`c`c`c`c`c`c`c`c`c`c`c`c`e`e`````````````.`.`````````````#`#",
"`````````````.`#`````````````````b`c`c`c`c`c`c`c`c`c`c`c`c`c`c`c`c`c`c`c`c`c`c`c`c`c`c`c`c`c`c`b`````````````.`#`````````````.`#",
"`````````````.`#`.```.`````````b`c`c`c`c`c`c`c`c`c`c`c`c`c`c`c`c`c`c`c`c`c`c`c`c`c`c`c`c`c`c`c`c`b```````````.`#`.```.```````.`#",
"`````````.`.`#`#`#`.```.```````b`c`c`c`c`c`c`c`c`c`c`c`c`c`c`c`c`c`c`c`c`c`c`c`c`c`c`c`c`c`c`c`c`b```````.`.`#`#`#`.```.`````.`d",
"`````.`.`#`#`#`#`#`#`#`#`#`#`b`e`c`c`c`c`c`c`c`c`c`c`c`c`c`c`c`c`c`c`c`c`c`c`c`c`c`c`c`c`c`c`c`c`c`b`.`.`#`#`#`#`#`#`#`#`#`#`d`d",
"```````````````````.`.`#`#`b`e`e`e`c`c`c`c`c`c`c`c`c`c`c`c`c`c`c`c`c`c`c`c`c`c`c`c`c`c`c`c`c`c`e`e`e`b`````````````.`.`#`#`.`#`#",
"```````````````````````.`b`e`e`e`e`e`c`c`c`c`c`c`c`c`c`c`c`c`c`c`c`c`c`c`c`c`c`c`c`c`c`c`c`e`e`e`e`e`e`b```````````````.`#```#`#",
"```````````````````````b`e`e`e`e`e`e`e`e`c`c`c`c`c`c`c`c`c`c`c`c`c`c`c`c`c`c`c`c`c`c`e`e`e`e`e`e`e`e`e`e`b```````````````.```.`#",
"```````````.```````````.`b`b`e`e`e`e`e`e`e`e`e`e`c`c`c`c`c`c`c`c`c`c`c`c`c`c`e`e`e`e`e`e`e`e`e`e`e`e`b`b```.```````````.`.```#`.",
"`````````.```.`````.```.`#```b`b`e`e`e`e`e`e`e`e`e`e`e`e`e`e`e`e`e`e`e`e`e`e`e`e`e`e`e`e`e`e`e`e`b`b`````.```.`````.```.`#```.`#",
"```.`.`.`.`.`.`.`.`#`.`#`#`.`````b`b`e`e`e`e`e`e`e`e`e`e`e`e`e`e`e`e`e`e`e`e`e`e`e`e`e`e`e`e`b`b```.`.`.`.`.`.`.`.`#`.`#`#`.`#`#",
"`.`.`.`#`.`.`#`#`#`#`#`#`#`#`#`#`.`.`b`b`b`b`b`e`e`e`e`e`e`e`e`e`e`e`e`e`e`e`e`e`e`b`b`b`b`b`#`#`.`.`.`#`.`.`#`#`#`#`#`#`#`#`#`d",
"`````````.`.`#`#`#`.`.`.```.`````````````.`.`#`b`b`b`e`e`e`e`e`e`e`e`e`e`e`e`b`b`b`.`.`.```.`````````````.`.`#`#`#`.`.`.```.`.`#",
"```````.`````.`#`.```.```.`````````````.`````.`#`.```b`b`b`b`b`b`b`b`b`b`b`b`.`#`.```.```.`````````````.`````.`#`.```.```.```#`#",
"```````````.```#`.`.```````````````````````.```#`.`b`e`f`f`f`f`f`f`f`f`f`f`e`b`#`.`.```````````````````````.```#`.`.`````````#`#",
"```````````````.```````````````````````````````.`b`e`e`e`e`f`f`f`f`f`f`e`e`e`e`b```````````````````````````````.`````````````.`#",
"`````````````.`.`````````````````````````````.`b`e`e`e`e`e`e`e`e`e`e`e`e`e`e`e`e`b```````````````````````````.`.`````````````#`#",
"`````````````.`#`````````````````````````````b`e`e`e`e`e`e`e`e`e`e`e`e`e`e`e`e`e`e`b`````````````````````````.`#`````````````.`#",
"`````````````.`#`.```.```````````````````````b`e`e`e`e`e`e`e`e`e`e`e`e`e`e`e`e`e`e`b`.```````````````````````.`#`.```.```````.`#",
"`````````.`.`#`#`#`.```.`````````````````.`b`c`c`c`c`e`e`e`e`e`e`e`e`e`e`e`e`e`c`c`c`b`.`````````````````.`.`#`#`#`.```.`````.`d",
"`````.`.`#`#`#`#`#`#`#`#`#`#`.`.`````.`.`#`b`c`c`c`c`c`c`c`e`e`e`e`e`e`c`c`c`c`c`c`c`b`#`#`#`.`.`````.`.`#`#`#`#`#`#`#`#`#`#`d`d",
"```````````````````.`.`#`#`.`````````````b`c`c`c`c`c`c`c`c`c`c`c`c`c`c`c`c`c`c`c`c`c`c`b`#`.```````````````````````.`.`#`#`.`#`#",
"```````````````````````.`#```````````````b`c`c`c`c`c`c`c`c`c`c`c`c`c`c`c`c`c`c`c`c`c`c`b`#`````````````````````````````.`#```#`#",
"`````````````````````````.`````````````b`c`c`c`c`c`c`c`c`c`c`c`c`c`c`c`c`c`g`g`c`c`c`c`c`b```````````````````````````````.```.`#",
"```````````.```````````.`.`````````````b`c`c`c`c`c`c`c`c`c`c`c`c`c`c`c`c`g`h`h`g`c`c`c`c`b`````````````````.```````````.`.```#`.",
"`````````.```.`````.```.`#`````````````b`c`c`c`c`c`c`c`c`c`c`c`c`c`c`c`c`h`h`h`h`c`c`c`c`b```````````````.```.`````.```.`#```.`#",
"```.`.`.`.`.`.`.`.`#`.`#`#`.```````.`b`e`c`c`c`c`c`c`c`c`c`c`c`c`c`c`c`c`h`h`h`i`c`c`c`c`e`b```````.`.`.`.`.`.`.`.`#`.`#`#`.`#`#",
"`j`j`j`k`j`l`k`k`k`k`m`n`n`n`n`n`o`o`b`e`c`c`c`c`c`c`c`c`c`c`c`c`c`c`c`c`h`h`h`c`c`c`c`c`e`b`#`#`.`.`.`#`.`.`#`#`#`#`#`#`#`#`#`d",
"`p`````q`r`r`s`k`k`j`j`j`p`j`t`u`u`b`e`e`c`c`c`c`c`c`c`c`c`c`c`c`c`c`c`c`h`h`h`c`c`c`c`c`e`e`b```````````.`.`#`#`#`.`.`.```.`.`#",
"`p`p`p`r`p`p`r`s`r`u`r`u`r`u`u`u`b`e`e`c`c`c`c`c`c`c`c`c`c`c`c`c`c`c`c`c`h`h`h`c`c`c`c`c`c`e`e`b```````.`````.`#`.```.```.```#`#",
"`u`u`u`u`u`r`u`s`r`r`u`u`u`u`u`b`e`c`c`c`c`c`c`c`c`c`c`c`c`c`c`c`c`c`c`c`h`h`h`c`c`c`c`c`c`c`e`e`b`````````.```#`.`.`````````#`#",
"`u`u`u`u`u`u`u`r`u`v`u`v`v`v`b`c`c`c`c`c`c`c`c`c`c`c`c`c`c`c`c`c`c`c`c`c`h`h`h`c`c`e`c`c`c`c`c`c`e`b```````````.`````````````.`#",
"`u`v`v`v`v`v`w`w`v`v`v`v`b`b`c`c`c`c`c`c`c`c`c`c`c`c`e`c`c`c`c`c`c`c`c`c`i`h`h`c`c`c`c`c`c`c`c`c`c`c`b`b`````.`.`````````````#`#",
"`v`v`v`v`v`v`w`x`v`v`b`b`c`c`c`c`c`c`c`c`c`c`c`c`c`c`c`c`c`c`c`c`c`c`c`i`i`i`i`c`c`c`c`c`c`c`c`c`c`c`c`c`b`b`.`#`````````````.`#",
"`v`v`v`v`v`v`w`x`w`b`c`c`c`c`c`c`c`c`c`c`c`e`c`c`c`e`c`c`c`c`c`c`e`e`e`i`i`i`i`c`c`c`c`e`c`c`c`c`c`c`c`c`c`c`b`#`.```.```````.`#",
"`v`v`v`v`w`w`x`x`b`c`c`c`c`e`c`c`c`c`c`c`e`c`c`c`c`c`c`c`c`c`c`e`b`b`i`i`i`i`c`c`c`c`c`c`c`c`c`e`c`c`c`c`c`c`c`b`#`.```.`````.`d",
"`v`v`w`w`x`x`x`x`x`b`b`e`e`c`c`c`c`c`c`c`c`c`c`c`e`e`c`c`c`c`e`b`y`i`i`i`i`e`e`c`c`c`c`c`e`c`c`c`e`c`c`c`c`b`b`#`#`#`#`#`#`#`d`d",
"`v`v`v`v`v`v`v`v`v`w`w`b`b`e`e`c`c`c`e`c`c`c`c`e`e`c`c`e`e`e`b`y`y`i`i`i`y`e`b`e`e`c`c`c`c`e`c`c`c`e`e`b`b`````````.`.`#`#`.`#`#",
"`v`v`v`v`v`v`v`v`v`v`v`w`x`b`b`e`e`e`e`e`e`e`e`e`e`e`e`b`b`b`y`i`i`i`i`i`i`y`b`b`e`e`e`e`e`e`e`e`e`b`b`````````````````.`#```#`#",
"`u`u`u`u`u`u`u`v`v`v`v`v`w`v`v`b`b`b`e`e`e`e`e`e`b`b`b`y`y`y`i`i`i`i`i`i`y`y`y`b`c`e`e`e`e`e`b`b`b```````````````````````.```.`#",
"`u`u`u`u`u`w`v`v`v`v`z`w`w`v`v`v`p`p`b`b`b`b`b`b`y`y`y`y`y`y`y`y`y`y`y`y`y`y`y`y`b`b`b`b`b`b```````````````.```````````.`.```#`.",
"`u`u`u`u`r`u`w`v`v`w`z`w`A`z`v`v`p`p`p`p`B`p`C`p`y`i`i`i`y```````````y`i`i`i`y`````.```.`#```````````````.```.`````.```.`#```.`#",
"`u`r`r`r`r`D`D`w`w`x`w`A`A`w`v`v`p`l`B`B`C`C`C`C`C`y`y`y`#`.```````.`.`y`y`y`.`.`.`#`.`#`#`.```````.`.`.`.`.`.`.`.`#`.`#`#`.`#`#",
"`r`r`r`s`r`r`E`x`x`x`F`A`A`A`x`s`r`j`B`G`B`C`H`I`I`J`#`#`#`#`#`#`.`.`.`#`.`.`#`#`#`#`#`#`#`#`#`#`.`.`.`#`.`.`#`#`#`#`#`#`#`#`#`d",
"`u`u`t`t`r`r`E`x`x`w`w`w`z`w`v`v`u`p`p`p`C`C`H`H`I`.`.`.```.`````````````.`.`#`#`#`.`.`.```.`````````````.`.`#`#`#`.`.`.```.`.`#",
"`u`u`u`r`u`u`r`E`w`v`w`v`w`z`z`z`K`p`p`B`u`p`C`H`C`L`.```.`````````````.`````.`#`.```.```.`````````````.`````.`#`.```.```.```#`#"
};
