/* XPM */
static char *cat_down_0_xpm[] = {
/* width height num_colors chars_per_pixel */
"    64    64      256            2",
/* colors */
"`` c #742a81",
"`. c #5b276d",
"`# c #42195d",
"`a c #62784a",
"`b c #171a0f",
"`c c #4e5332",
"`d c #2a2640",
"`e c #243117",
"`f c #3d3734",
"`g c #9f8965",
"`h c #bd7247",
"`i c #e6daad",
"`j c #302d21",
"`k c #cd9757",
"`l c #796e67",
"`m c #84ae56",
"`n c #364922",
"`o c #fdffd6",
"`p c #e2b179",
"`q c #3a1f1d",
"`r c #6b3840",
"`s c #b34d5c",
"`t c #8d4953",
"`u c #a47556",
"`v c #5d286f",
"`w c #461b60",
"`x c #5d276f",
"`y c #461a60",
"`z c #451a5f",
"`A c #5d286e",
"`B c #752a82",
"`C c #752a81",
"`D c #5e286f",
"`E c #471b60",
"`F c #752b81",
"`G c #752b82",
"`H c #762b82",
"`I c #5f2870",
"`J c #481b61",
"`K c #9c8c81",
"`L c #762b83",
"`M c #491b62",
"`N c #5d276e",
"`O c #5c276e",
"`P c #5e2870",
"`Q c #43195d",
"`R c #471b61",
"`S c #481b62",
"`T c #451a5e",
"`U c #431a5e",
"`V c #43195e",
"`W c #752b83",
"`X c #742a82",
"`Y c #000000",
"`Z c #000000",
"`0 c #000000",
"`1 c #000000",
"`2 c #000000",
"`3 c #000000",
"`4 c #000000",
"`5 c #000000",
"`6 c #000000",
"`7 c #000000",
"`8 c #000000",
".` c #000000",
".. c #000000",
".# c #000000",
".a c #000000",
".b c #000000",
".c c #000000",
".d c #000000",
".e c #000000",
".f c #000000",
".g c #000000",
".h c #000000",
".i c #000000",
".j c #000000",
".k c #000000",
".l c #000000",
".m c #000000",
".n c #000000",
".o c #000000",
".p c #000000",
".q c #000000",
".r c #000000",
".s c #000000",
".t c #000000",
".u c #000000",
".v c #000000",
".w c #000000",
".x c #000000",
".y c #000000",
".z c #000000",
".A c #000000",
".B c #000000",
".C c #000000",
".D c #000000",
".E c #000000",
".F c #000000",
".G c #000000",
".H c #000000",
".I c #000000",
".J c #000000",
".K c #000000",
".L c #000000",
".M c #000000",
".N c #000000",
".O c #000000",
".P c #000000",
".Q c #000000",
".R c #000000",
".S c #000000",
".T c #000000",
".U c #000000",
".V c #000000",
".W c #000000",
".X c #000000",
".Y c #000000",
".Z c #000000",
".0 c #000000",
".1 c #000000",
".2 c #000000",
".3 c #000000",
".4 c #000000",
".5 c #000000",
".6 c #000000",
".7 c #000000",
".8 c #000000",
"#` c #000000",
"#. c #000000",
"## c #000000",
"#a c #000000",
"#b c #000000",
"#c c #000000",
"#d c #000000",
"#e c #000000",
"#f c #000000",
"#g c #000000",
"#h c #000000",
"#i c #000000",
"#j c #000000",
"#k c #000000",
"#l c #000000",
"#m c #000000",
"#n c #000000",
"#o c #000000",
"#p c #000000",
"#q c #000000",
"#r c #000000",
"#s c #000000",
"#t c #000000",
"#u c #000000",
"#v c #000000",
"#w c #000000",
"#x c #000000",
"#y c #000000",
"#z c #000000",
"#A c #000000",
"#B c #000000",
"#C c #000000",
"#D c #000000",
"#E c #000000",
"#F c #000000",
"#G c #000000",
"#H c #000000",
"#I c #000000",
"#J c #000000",
"#K c #000000",
"#L c #000000",
"#M c #000000",
"#N c #000000",
"#O c #000000",
"#P c #000000",
"#Q c #000000",
"#R c #000000",
"#S c #000000",
"#T c #000000",
"#U c #000000",
"#V c #000000",
"#W c #000000",
"#X c #000000",
"#Y c #000000",
"#Z c #000000",
"#0 c #000000",
"#1 c #000000",
"#2 c #000000",
"#3 c #000000",
"#4 c #000000",
"#5 c #000000",
"#6 c #000000",
"#7 c #000000",
"#8 c #000000",
"a` c #000000",
"a. c #000000",
"a# c #000000",
"aa c #000000",
"ab c #000000",
"ac c #000000",
"ad c #000000",
"ae c #000000",
"af c #000000",
"ag c #000000",
"ah c #000000",
"ai c #000000",
"aj c #000000",
"ak c #000000",
"al c #000000",
"am c #000000",
"an c #000000",
"ao c #000000",
"ap c #000000",
"aq c #000000",
"ar c #000000",
"as c #000000",
"at c #000000",
"au c #000000",
"av c #000000",
"aw c #000000",
"ax c #000000",
"ay c #000000",
"az c #000000",
"aA c #000000",
"aB c #000000",
"aC c #000000",
"aD c #000000",
"aE c #000000",
"aF c #000000",
"aG c #000000",
"aH c #000000",
"aI c #000000",
"aJ c #000000",
"aK c #000000",
"aL c #000000",
"aM c #000000",
"aN c #000000",
"aO c #000000",
"aP c #000000",
"aQ c #000000",
"aR c #000000",
"aS c #000000",
"aT c #000000",
"aU c #000000",
"aV c #000000",
"aW c #000000",
"aX c #000000",
"aY c #000000",
"aZ c #000000",
"a0 c #000000",
"a1 c #000000",
"a2 c #000000",
"a3 c #000000",
"a4 c #000000",
"a5 c #000000",
"a6 c #000000",
"a7 c #000000",
"a8 c #000000",
/* pixels */
"```````````.```#`.`.```````````````````````.```#`.`.```````````````````````.```#`.`.```````````````````````.```#`.`.`````````#`#",
"```````````````.```````````````````````````````.```````````````````````````````.```````````````````````````````.`````````````.`#",
"`````````````.`.`````````````````````````````.`.`````````````````````````````.`.`````````````````````````````.`.`````````````#`#",
"`````````````.`#`````````````````````a```````.`#`````````````````````````````.`#```````````a`````````````````.`#`````````````.`#",
"`````````````.`#`.```.`````````````b`a`a`````.`#`.```.```````````````````````.`#`.```.```a`a`b```````````````.`#`.```.```````.`#",
"`````````.`.`#`#`#`.```.```````````b`c`a`a`.`#`#`#`.```.`````````````````.`.`#`#`#`.```a`a`c`b```````````.`.`#`#`#`.```.`````.`d",
"`````.`.`#`#`#`#`#`#`#`#`#`#`.`.`b`c`c`c`a`a`#`#`#`#`#`#`#`#`.`.`````.`.`#`#`#`#`#`#`a`a`c`c`c`b`````.`.`#`#`#`#`#`#`#`#`#`#`d`d",
"```````````````````.`.`#`#`.`````b`c`c`c`a`a`a`````.`.`#`#`.```````````````````````a`a`a`c`c`c`b```````````````````.`.`#`#`.`#`#",
"```````````````````````.`#```````b`c`c`c`c`a`a`a```````.`#```````````````````````a`a`a`c`c`c`c`b```````````````````````.`#```#`#",
"`````````````````````````.`````b`e`c`c`c`c`c`a`a`a```````.`````````````````````a`a`a`c`c`c`c`c`e`b```````````````````````.```.`#",
"```````````.```````````.`.`````b`e`c`c`c`c`c`a`a`a`a`a`a`a`a`a`a`a`a`a`a`a`a`a`a`a`a`c`c`c`c`c`e`b`````````.```````````.`.```#`.",
"`````````.```.`````.```.`#`````b`e`c`c`c`c`c`c`a`a`a`a`a`a`a`a`a`a`a`a`a`a`a`a`a`a`c`c`c`c`c`c`e`b```````.```.`````.```.`#```.`#",
"```.`.`.`.`.`.`.`.`#`.`#`#`.```b`e`c`c`c`c`c`c`a`a`c`c`c`c`c`c`c`c`c`c`c`c`c`c`a`a`c`c`c`c`c`c`e`b`.`.`.`.`.`.`.`.`#`.`#`#`.`#`#",
"`.`.`.`#`.`.`#`#`#`#`#`#`#`#`#`b`e`c`c`c`e`c`a`c`c`c`c`c`c`c`c`c`c`c`c`c`c`c`c`c`c`a`c`c`c`c`c`e`b`.`.`#`.`.`#`#`#`#`#`#`#`#`#`d",
"`````````.`.`#`#`#`.`.`.```.```b`e`e`c`e`a`c`c`c`c`c`c`c`c`c`c`c`c`c`c`c`c`c`c`c`c`c`c`e`c`c`c`e`b```````.`.`#`#`#`.`.`.```.`.`#",
"```````.`````.`#`.```.```.`````b`e`e`e`a`c`c`c`c`c`c`c`c`c`c`c`c`c`c`c`c`c`c`c`c`c`c`c`a`e`c`e`e`b`````.`````.`#`.```.```.```#`#",
"```````````.```#`.`.```````````b`e`e`e`a`c`c`c`c`c`c`c`c`c`c`c`c`c`c`c`c`c`c`c`c`c`c`c`c`a`e`e`e`b`````````.```#`.`.`````````#`#",
"```````````````.`````````````````b`e`a`c`c`c`c`c`c`c`c`a`a`a`a`a`a`a`a`a`a`c`c`c`c`c`c`c`a`e`e`b```````````````.`````````````.`#",
"`````````````.`.`````````````````b`b`c`c`c`c`c`c`c`a`a`f`f`f`f`g`g`g`f`f`f`a`a`c`c`c`c`c`c`a`b`b`````````````.`.`````````````#`#",
"`````````````.`#`````````````````b`c`c`c`c`c`c`a`a`g`g`g`f`f`g`g`g`g`g`f`f`f`f`a`a`c`c`c`c`c`c`b`````````````.`#`````````````.`#",
"`````````````.`#`.```.`````````b`c`c`c`c`c`c`a`h`h`g`g`g`g`g`g`g`g`g`g`g`f`f`f`f`f`a`c`c`c`c`c`c`b```````````.`#`.```.```````.`#",
"`````````.`.`#`#`#`.```.```````b`c`c`c`c`c`a`h`h`g`g`g`i`j`j`i`i`i`i`j`j`g`f`f`f`f`f`a`c`c`c`c`c`b```````.`.`#`#`#`.```.`````.`d",
"`````.`.`#`#`#`#`#`#`#`#`#`#`b`c`c`c`c`c`c`a`h`h`h`k`k`i`i`i`i`i`i`i`i`i`i`l`l`f`f`f`a`c`c`c`c`c`c`b`.`.`#`#`#`#`#`#`#`#`#`#`d`d",
"```````````````````.`.`#`#`b`c`c`c`c`c`c`c`a`h`h`k`k`k`k`i`i`i`i`i`i`i`i`i`i`l`l`f`g`a`c`c`c`c`c`c`c`b`````````````.`.`#`#`.`#`#",
"```````````````````````.`b`c`c`c`c`c`c`c`h`h`k`k`j`j`m`n`o`i`i`i`i`i`i`o`n`m`j`j`i`i`g`b`c`c`c`c`c`c`c`b```````````````.`#```#`#",
"```````````````````````b`e`e`c`c`c`c`c`b`h`k`k`k`k`m`m`n`m`o`i`i`i`i`o`m`n`m`m`o`o`i`i`g`b`c`c`c`c`c`e`e`b```````````````.```.`#",
"```````````.```````````.`b`b`e`e`c`c`c`b`h`k`k`k`k`p`m`n`m`m`i`i`i`i`m`m`n`m`o`i`i`i`i`g`b`c`c`c`e`e`b`b```.```````````.`.```#`.",
"`````````.```.`````.```.`#```b`b`e`e`e`e`b`h`k`k`k`k`p`i`i`i`i`o`o`i`i`i`i`i`i`i`i`i`g`b`e`e`e`e`b`b`````.```.`````.```.`#```.`#",
"```.`.`.`.`.`.`.`.`#`.`#`#`.`````b`b`e`e`e`b`h`k`k`i`i`i`i`i`i`j`j`i`i`i`i`i`i`i`i`g`b`e`e`e`b`b```.`.`.`.`.`.`.`.`#`.`#`#`.`#`#",
"`.`.`.`#`.`.`#`#`#`#`#`#`#`#`#`#`.`.`b`b`b`b`b`g`i`i`i`i`i`i`i`i`i`i`i`i`i`i`i`i`g`b`b`b`b`b`#`#`.`.`.`#`.`.`#`#`#`#`#`#`#`#`#`d",
"`````````.`.`#`#`#`.`.`.```.`````````````.`.`#`b`b`b`i`i`i`i`i`i`i`i`i`i`i`i`b`b`b`.`.`.```.`````````````.`.`#`#`#`.`.`.```.`.`#",
"```````.`````.`#`.```.```.`````````````.`````.`#`.```b`b`b`b`b`b`b`b`b`b`b`b`.`#`.```.```.`````````````.`````.`#`.```.```.```#`#",
"```````````.```#`.`.```````````````````````.```#`.`b`e`e`q`r`r`q`q`r`r`q`e`e`b`#`.`.```````````````````````.```#`.`.`````````#`#",
"```````````````.```````````````````````````````.`b`e`e`q`s`t`r`q`q`r`t`s`q`e`e`b```````````````i`o`````````````.`````````````.`#",
"`````````````.`.`````````````````````````````.`b`e`e`q`s`s`t`q`g`g`q`t`s`s`q`e`e`b```````````i`i`i`o`````````.`.`````````````#`#",
"`````````````.`#`````````````````````````````b`e`e`e`q`s`t`r`q`g`g`q`r`t`s`q`e`e`e`b```````````i`i`o`````````.`#`````````````.`#",
"`````````````.`#`.```.```````````````````````b`e`e`e`q`r`r`q`g`g`g`g`q`r`r`q`e`e`e`b`.`````````g`i`i`````````.`#`.```.```````.`#",
"`````````.`.`#`#`#`.```.`````````````````.`b`c`c`c`e`e`q`q`g`g`i`i`g`h`q`q`e`e`c`c`c`b`.```````g`i`i`````.`.`#`#`#`.```.`````.`d",
"`````.`.`#`#`#`#`#`#`#`#`#`#`.`.`````.`.`#`b`c`c`c`c`e`b`g`g`i`i`i`i`h`h`b`e`c`c`c`c`b`#`#`#`.`g`i`g`.`.`#`#`#`#`#`#`#`#`#`#`d`d",
"```````````````````.`.`#`#`.`````````````b`c`c`c`c`c`b`g`g`i`i`i`i`i`k`h`h`b`c`c`c`c`c`b`#`.`j`i`i`````````````````.`.`#`#`.`#`#",
"```````````````````````.`#```````````````b`c`c`c`c`b`g`g`i`i`i`i`i`k`k`k`h`h`b`c`c`c`c`b`j`j`g`g`j`````````````````````.`#```#`#",
"`````````````````````````.`````````````b`c`c`c`c`c`b`g`i`i`i`i`i`i`k`k`k`k`h`b`c`c`c`c`c`b`g`g`j`````````````````````````.```.`#",
"```````````.```````````.`.`````````````b`c`c`c`c`c`b`i`i`i`i`i`i`i`k`k`k`k`k`b`c`c`c`c`c`b`g`j`````````````.```````````.`.```#`.",
"`````````.```.`````.```.`#`````````````b`c`c`c`c`b`i`i`g`i`i`i`i`i`i`i`k`u`k`k`b`c`c`c`c`b`j`````````````.```.`````.```.`#```.`#",
"```.`.`.`.`.`.`.`.`#`.`#`#`.```````.`b`e`c`c`c`c`b`i`i`g`i`i`o`g`g`o`i`i`g`i`i`b`c`c`c`c`e`b```````.`.`.`.`.`.`.`.`#`.`#`#`.`#`#",
"`v`v`v`w`v`x`w`w`w`w`y`z`z`z`z`z`A`A`b`e`c`c`c`c`b`i`i`g`j`i`o`g`g`o`i`j`g`i`i`b`c`c`c`c`e`b`#`#`.`.`.`#`.`.`#`#`#`#`#`#`#`#`#`d",
"`B`````C`D`D`E`w`w`v`v`v`B`v`F`G`G`b`e`e`c`c`c`c`b`i`i`i`j`o`o`j`j`o`o`j`i`i`i`b`c`c`c`c`e`e`b```````````.`.`#`#`#`.`.`.```.`.`#",
"`B`B`B`D`B`B`D`E`D`G`D`G`D`G`G`G`b`e`e`c`c`c`c`c`b`k`i`i`g`j`o`j`j`o`j`g`i`i`i`b`c`c`c`c`c`e`e`b```````.`````.`#`.```.```.```#`#",
"`G`G`G`G`G`D`G`E`D`D`G`G`G`G`G`b`e`c`c`c`c`c`c`b`h`k`k`i`i`g`j`j`j`j`g`i`i`i`i`g`b`c`c`c`c`c`e`e`b`````````.```#`.`.`````````#`#",
"`G`G`G`G`G`G`G`D`G`H`G`H`H`H`b`c`c`c`c`c`e`c`c`b`h`k`i`i`i`i`g`g`g`g`i`i`i`i`i`g`b`c`c`e`c`c`c`c`e`b```````````.`````````````.`#",
"`G`H`H`H`H`H`I`I`H`H`H`H`b`b`c`c`c`c`c`c`c`c`c`b`u`i`i`i`i`i`i`i`i`i`i`i`i`i`i`g`b`c`c`c`c`c`c`c`c`c`b`b`````.`.`````````````#`#",
"`H`H`H`H`H`H`I`J`H`H`b`b`c`c`c`c`e`c`c`c`c`c`c`b`g`i`i`i`i`i`i`i`i`i`i`i`i`i`i`g`b`c`c`c`c`c`c`e`c`c`c`c`b`b`.`#`````````````.`#",
"`H`H`H`H`H`H`I`J`I`b`c`c`c`c`c`c`c`c`c`e`c`c`c`b`g`i`i`i`i`i`i`i`i`i`l`l`i`i`i`g`b`c`c`c`e`c`c`c`c`c`c`c`c`c`b`#`.```.```````.`#",
"`H`H`H`H`I`I`J`J`b`c`c`c`c`c`e`c`c`c`c`c`c`c`c`b`g`i`i`i`i`i`i`i`l`l`l`l`i`i`i`g`e`c`c`c`c`c`c`c`c`e`c`c`c`c`c`b`#`.```.`````.`d",
"`H`H`I`I`J`J`J`J`J`b`b`c`c`e`c`c`c`c`e`c`c`c`c`e`b`i`i`i`i`i`o`o`K`K`l`l`i`i`i`b`e`c`c`c`c`e`c`c`c`c`e`c`c`b`b`#`#`#`#`#`#`#`d`d",
"`H`H`H`H`H`H`H`H`H`I`I`b`b`e`e`c`c`e`e`c`c`c`c`e`b`i`i`i`i`i`g`g`f`f`l`l`l`i`i`b`e`c`c`c`c`e`e`c`c`e`e`b`b`````````.`.`#`#`.`#`#",
"`H`H`H`H`H`H`H`H`H`H`H`I`J`b`b`e`e`e`e`e`e`e`e`e`b`g`i`i`i`g`j`j`j`j`f`l`l`i`g`b`e`e`e`e`e`e`e`e`e`b`b`````````````````.`#```#`#",
"`G`G`G`G`G`G`G`H`H`H`H`H`I`H`H`b`b`b`e`e`e`e`e`e`b`g`g`i`i`j`````````j`l`l`g`g`b`e`e`e`e`e`e`b`b`b```````````````````````.```.`#",
"`G`G`G`G`G`I`H`H`H`H`L`I`I`H`H`H`B`B`b`b`b`b`b`b`B`j`g`g`g`j`````````j`f`f`g`j```b`b`b`b`b`b```````````````.```````````.`.```#`.",
"`G`G`G`G`D`G`I`H`H`I`L`I`M`L`H`H`B`B`B`B`N`B`O`B`B`j`o`o`o`j`````````j`o`o`o`j`````.```.`#```````````````.```.`````.```.`#```.`#",
"`G`D`D`D`D`P`P`I`I`J`I`M`M`I`H`H`B`x`N`N`O`O`O`O`O`Q`j`j`j`.```````.`.`j`j`j`.`.`.`#`.`#`#`.```````.`.`.`.`.`.`.`.`#`.`#`#`.`#`#",
"`D`D`D`E`D`D`R`J`J`J`S`M`M`M`J`E`D`v`N`T`N`O`U`V`V`Q`#`#`#`#`#`#`.`.`.`#`.`.`#`#`#`#`#`#`#`#`#`#`.`.`.`#`.`.`#`#`#`#`#`#`#`#`#`d",
"`G`G`F`F`D`D`R`J`J`I`I`I`L`I`H`H`G`B`B`B`O`O`U`U`V`.`.`.```.`````````````.`.`#`#`#`.`.`.```.`````````````.`.`#`#`#`.`.`.```.`.`#",
"`G`G`G`D`G`G`D`R`I`H`I`H`I`L`L`L`W`B`B`N`G`B`O`U`O`X`.```.`````````````.`````.`#`.```.```.`````````````.`````.`#`.```.```.```#`#"
};
