/* XPM */
static char *cat_left_3_xpm[] = {
/* width height num_colors chars_per_pixel */
"    64    64      256            2",
/* colors */
"`` c #742a81",
"`. c #5b276d",
"`# c #42195d",
"`a c #62784a",
"`b c #2a2640",
"`c c #4e5332",
"`d c #171a0f",
"`e c #243117",
"`f c #9f8965",
"`g c #e6daad",
"`h c #fdffd6",
"`i c #796e67",
"`j c #3d3734",
"`k c #302d21",
"`l c #364922",
"`m c #84ae56",
"`n c #6b3840",
"`o c #3a1f1d",
"`p c #b34d5c",
"`q c #8d4953",
"`r c #bd7247",
"`s c #cd9757",
"`t c #80592d",
"`u c #ab7b44",
"`v c #5d286f",
"`w c #461b60",
"`x c #5d276f",
"`y c #461a60",
"`z c #451a5f",
"`A c #5d286e",
"`B c #752a82",
"`C c #752a81",
"`D c #5e286f",
"`E c #471b60",
"`F c #752b81",
"`G c #752b82",
"`H c #762b82",
"`I c #5f2870",
"`J c #481b61",
"`K c #762a82",
"`L c #5d276e",
"`M c #9c8c81",
"`N c #762b83",
"`O c #491b62",
"`P c #5c276e",
"`Q c #5c276d",
"`R c #5e2870",
"`S c #43195d",
"`T c #471b61",
"`U c #481b62",
"`V c #451a5e",
"`W c #431a5e",
"`X c #43195e",
"`Y c #752b83",
"`Z c #742a82",
"`0 c #000000",
"`1 c #000000",
"`2 c #000000",
"`3 c #000000",
"`4 c #000000",
"`5 c #000000",
"`6 c #000000",
"`7 c #000000",
"`8 c #000000",
".` c #000000",
".. c #000000",
".# c #000000",
".a c #000000",
".b c #000000",
".c c #000000",
".d c #000000",
".e c #000000",
".f c #000000",
".g c #000000",
".h c #000000",
".i c #000000",
".j c #000000",
".k c #000000",
".l c #000000",
".m c #000000",
".n c #000000",
".o c #000000",
".p c #000000",
".q c #000000",
".r c #000000",
".s c #000000",
".t c #000000",
".u c #000000",
".v c #000000",
".w c #000000",
".x c #000000",
".y c #000000",
".z c #000000",
".A c #000000",
".B c #000000",
".C c #000000",
".D c #000000",
".E c #000000",
".F c #000000",
".G c #000000",
".H c #000000",
".I c #000000",
".J c #000000",
".K c #000000",
".L c #000000",
".M c #000000",
".N c #000000",
".O c #000000",
".P c #000000",
".Q c #000000",
".R c #000000",
".S c #000000",
".T c #000000",
".U c #000000",
".V c #000000",
".W c #000000",
".X c #000000",
".Y c #000000",
".Z c #000000",
".0 c #000000",
".1 c #000000",
".2 c #000000",
".3 c #000000",
".4 c #000000",
".5 c #000000",
".6 c #000000",
".7 c #000000",
".8 c #000000",
"#` c #000000",
"#. c #000000",
"## c #000000",
"#a c #000000",
"#b c #000000",
"#c c #000000",
"#d c #000000",
"#e c #000000",
"#f c #000000",
"#g c #000000",
"#h c #000000",
"#i c #000000",
"#j c #000000",
"#k c #000000",
"#l c #000000",
"#m c #000000",
"#n c #000000",
"#o c #000000",
"#p c #000000",
"#q c #000000",
"#r c #000000",
"#s c #000000",
"#t c #000000",
"#u c #000000",
"#v c #000000",
"#w c #000000",
"#x c #000000",
"#y c #000000",
"#z c #000000",
"#A c #000000",
"#B c #000000",
"#C c #000000",
"#D c #000000",
"#E c #000000",
"#F c #000000",
"#G c #000000",
"#H c #000000",
"#I c #000000",
"#J c #000000",
"#K c #000000",
"#L c #000000",
"#M c #000000",
"#N c #000000",
"#O c #000000",
"#P c #000000",
"#Q c #000000",
"#R c #000000",
"#S c #000000",
"#T c #000000",
"#U c #000000",
"#V c #000000",
"#W c #000000",
"#X c #000000",
"#Y c #000000",
"#Z c #000000",
"#0 c #000000",
"#1 c #000000",
"#2 c #000000",
"#3 c #000000",
"#4 c #000000",
"#5 c #000000",
"#6 c #000000",
"#7 c #000000",
"#8 c #000000",
"a` c #000000",
"a. c #000000",
"a# c #000000",
"aa c #000000",
"ab c #000000",
"ac c #000000",
"ad c #000000",
"ae c #000000",
"af c #000000",
"ag c #000000",
"ah c #000000",
"ai c #000000",
"aj c #000000",
"ak c #000000",
"al c #000000",
"am c #000000",
"an c #000000",
"ao c #000000",
"ap c #000000",
"aq c #000000",
"ar c #000000",
"as c #000000",
"at c #000000",
"au c #000000",
"av c #000000",
"aw c #000000",
"ax c #000000",
"ay c #000000",
"az c #000000",
"aA c #000000",
"aB c #000000",
"aC c #000000",
"aD c #000000",
"aE c #000000",
"aF c #000000",
"aG c #000000",
"aH c #000000",
"aI c #000000",
"aJ c #000000",
"aK c #000000",
"aL c #000000",
"aM c #000000",
"aN c #000000",
"aO c #000000",
"aP c #000000",
"aQ c #000000",
"aR c #000000",
"aS c #000000",
"aT c #000000",
"aU c #000000",
"aV c #000000",
"aW c #000000",
"aX c #000000",
"aY c #000000",
"aZ c #000000",
"a0 c #000000",
"a1 c #000000",
"a2 c #000000",
"a3 c #000000",
"a4 c #000000",
"a5 c #000000",
"a6 c #000000",
"a7 c #000000",
"a8 c #000000",
/* pixels */
"```````````.```#`.`.```````````````````````.```#`.`.```````````````````````.```#`.`.```````````````````````.```#`.`.`````````#`#",
"```````````````.```````````````````````````````.```````````````````````````````.```````````````````````````````.`````````````.`#",
"`````````````.`.`````````````````````````````.`.`````````````````````````````.`.`````````````````````````````.`.`````````````#`#",
"`````````````.`#`````````````````````````````.`#`````````````````````````````.`#`````````````````````````````.`#`````````````.`#",
"`````````````.`#`.```.```````````````````````.`#`.```.`````````a```````a`````.`#`.```.```````````````````````.`#`.```.```````.`#",
"`````````.`.`#`#`#`.```.`````````````````.`.`#`#`#`.```.`````a`a`````a`a`.`.`#`#`#`.```.`````````````````.`.`#`#`#`.```.`````.`b",
"`````.`.`#`#`#`#`#`#`#`#`#`#`.`.`````.`.`#`#`#`#`#`#`#`#`#`a`a`c`d`a`a`d`#`#`#`#`#`#`#`#`#`#`.`.`````.`.`#`#`#`#`#`#`#`#`#`#`b`b",
"```````````````````.`.`#`#`.```````````````````````.`.`#`a`a`c`e`a`a`c`c`d`````````.`.`#`#`.```````````````````````.`.`#`#`.`#`#",
"```````````````````````.`#`````````````````````````````a`a`c`e`a`a`c`c`c`d`````````````.`#`````````````````````````````.`#```#`#",
"`````````````````````````.```````````````````````````a`a`e`a`a`a`c`c`c`c`d```````````````.```````````````````````````````.```.`#",
"```````````.```````````.`.`````````````````.```````a`e`a`a`a`a`c`c`c`c`c`e`d```````````.`.`````````````````.```````````.`.```#`.",
"`````````.```.`````.```.`#```````````````.```a`a`a`a`a`a`a`c`c`c`c`c`c`c`e`d`.`````.```.`#```````````````.```.`````.```.`#```.`#",
"```.`.`.`.`.`.`.`.`#`.`#`#`.```````.`.`.`a`a`a`a`a`a`a`e`e`c`c`c`c`c`c`e`e`d`.`.`.`#`.`#`#`.```````.`.`.`.`.`.`.`.`#`.`#`#`.`#`#",
"`.`.`.`#`.`.`#`#`#`#`#`#`#`#`#`#`.`.`a`a`a`c`c`c`c`c`c`c`c`e`c`c`c`c`e`e`e`d`#`#`#`#`#`#`#`#`#`#`.`.`.`#`.`.`#`#`#`#`#`#`#`#`#`b",
"`````````.`.`#`#`#`.`.`.```.```````a`a`c`c`c`c`c`c`c`c`c`c`c`c`e`e`e`e`e`e`d`#`#`#`.`.`.```.`````````````.`.`#`#`#`.`.`.```.`.`#",
"```````.`````.`#`.```.```.```````a`a`c`c`c`c`c`c`c`c`c`c`c`c`c`c`e`e`e`e`e`d`.`#`.```.```.`````````````.`````.`#`.```.```.```#`#",
"```````````.```#`.`.`````````````a`a`a`c`c`c`c`c`c`c`c`c`c`c`c`c`c`e`e`e`e`d```#`.`.```````````````````````.```#`.`.`````````#`#",
"```````````````.```````````````````f`f`a`a`c`c`c`c`c`c`c`c`c`c`c`c`c`c`e`e`d```.```````````````````````````````.`````````````.`#",
"`````````````.`.`````````````````f`g`g`f`f`a`a`c`c`c`c`c`c`c`c`c`c`c`c`c`d```.`.`````````````````````````````.`.`````````````#`#",
"`````````````.`#`````````````````f`h`g`g`i`i`j`a`c`c`c`c`c`c`c`c`c`c`c`c`c`d`.`#`````````````````````````````.`#`````````````.`#",
"`````````````.`#`.```.```````````g`k`k`f`g`i`i`a`c`c`c`c`c`c`c`c`c`c`c`c`c`d`.`#`.```.```````````````````````.`#`.```.```````.`#",
"`````````.`.`#`#`#`.```.`````````g`g`g`g`g`i`i`j`a`c`c`c`c`c`c`c`c`c`c`c`c`e`d`#`#`.```.`````````````````.`.`#`#`#`.```.`````.`b",
"`````.`.`#`#`#`#`#`#`#`#`#`#`.`.`g`g`f`h`i`i`i`i`a`c`c`c`c`c`c`c`c`c`c`c`c`e`d`#`#`#`#`#`#`#`.`.`````.`.`#`#`#`#`#`#`#`#`#`#`b`b",
"```````````````````.`.`#`#`.`````g`g`l`m`k`k`g`g`a`e`c`c`c`c`c`c`c`c`c`c`c`c`e`d```.`.`#`#`.```````````````````````.`.`#`#`.`#`#",
"```````````````````````.`#```````g`g`l`m`m`h`g`g`f`a`e`c`c`c`c`c`c`c`c`c`c`c`c`c`d`````.`#`````````````````````````````.`#```#`#",
"`````````````````````````.`````g`g`g`l`m`h`h`h`g`g`f`a`e`c`c`c`c`c`c`c`c`c`c`c`e`e`d`````.```````````````````````````````.```.`#",
"```````````.```````````.`.```k`k`h`g`g`h`h`g`g`g`g`f`f`a`e`c`c`c`c`c`c`c`c`c`e`e`e`e`d`.`.`````````````````.```````````.`.```#`.",
"`````````.```.`````.```.`#```f`g`g`g`g`g`g`g`g`g`f`f`d`e`c`c`c`c`c`c`c`c`c`e`e`e`e`d```.`#```````````````.```.`````.```.`#```.`#",
"```.`.`.`.`.`.`.`.`#`.`#`#`.`f`g`g`g`g`g`g`g`g`f`f`d`e`c`c`c`c`c`c`c`c`e`e`e`e`e`d`#`.`#`#`.```````.`.`.`.`.`.`.`.`#`.`#`#`.`#`#",
"`.`.`.`#`.`.`#`#`#`#`#`#`#`#`#`f`g`g`g`g`g`g`f`f`d`e`c`c`c`c`c`c`c`c`e`e`e`e`d`d`#`#`#`#`#`#`#`#`.`.`.`#`.`.`#`#`#`#`#`#`#`#`#`b",
"`````````.`.`#`#`#`.`.`.```.`````f`g`g`g`g`f`f`d`e`c`c`c`c`c`c`e`e`e`e`e`d`d`#`#`#`.`.`.```.`````````````.`.`#`#`#`.`.`.```.`.`#",
"```````.`````.`#`.```.```.```````````f`f`f`d`d`e`e`e`e`e`e`e`e`e`e`e`d`d`````.`#`.```.```.`````````````.`````.`#`.```.```.```#`#",
"```````````.```#`.`.`````````````````````d`d`d`d`d`d`d`d`d`d`d`d`d`d```````.```#`.`.```````````````````````.```#`.`.`````````#`#",
"```````````````.`````````````````````````n`n`o`d`e`e`e`e`e`e`d`````````````````.```````````````````````````````.`````````````.`#",
"`````````````.`.```````````````````````p`q`n`o`d`e`e`e`e`e`e`e`d`````````````.`.`````````````````````````````.`.`````````````#`#",
"`````````````.`#`````````````````````p`q`n`o`k`d`e`e`e`e`e`e`e`d`````````````.`#`````````````````````````````.`#`````````````.`#",
"`````````````.`#`.```.```````````````q`n`o`k`k`d`e`e`c`e`e`e`e`e`d```````````.`#`.```.```````````````````````.`#`.```.```````.`#",
"`````````.`.`#`#`#`.```.`````````````o`o`k`k`k`d`e`c`c`e`c`e`e`e`d```````.`.`#`#`#`.```.`````````````````.`.`#`#`#`.```.`````.`b",
"`````.`.`#`#`#`#`#`#`#`#`#`#`.`.`````.`f`g`r`k`d`e`c`c`e`c`c`c`e`e`d`.`.`#`#`#`#`#`#`#`#`#`#`.`.`````.`.`#`#`#`#`#`#`#`#`#`#`b`b",
"```````````````````.`.`#`#`.```````````f`s`r`t`d`e`c`c`c`e`c`c`e`c`d```````````````.`.`#`#`.```````````````````````.`.`#`#`.`#`#",
"```````````````````````.`#`````````````f`h`u`r`k`d`c`c`c`e`c`c`c`c`c`d`````````````````.`#`````````````````````````````.`#```#`#",
"`````````````````````````.`````````````h`h`s`s`k`d`c`c`c`c`c`c`c`c`c`d```````````````````.```````````````````````````````.```.`#",
"```````````.```````````.`.```````````h`h`g`g`r`k`d`c`c`c`e`c`c`c`c`c`c`d```.```````````.`.`````````````````.```````````.`.```#`.",
"`````````.```.`````.```.`#```````````h`g`g`f`k`k`d`c`c`c`c`c`c`c`c`c`c`d`.```.`````.```.`#```h`h`h```````.```.`````.```.`#```.`#",
"```.`.`.`.`.`.`.`.`#`.`#`#`.```````h`h`g`f`f`k`k`d`c`c`c`c`c`c`c`c`c`c`c`d`.`.`.`.`#`.`#`#`h`g`g`g`h`.`.`.`.`.`.`.`#`.`#`#`.`#`#",
"`v`v`v`w`v`x`w`w`w`w`y`z`z`z`z`z`A`f`g`g`f`k`g`k`d`c`c`c`c`c`c`c`c`c`c`c`c`d`#`#`#`#`#`#`#`g`g`g`g`g`.`#`.`.`#`#`#`#`#`#`#`#`#`b",
"`B`````C`D`D`E`w`w`v`v`v`B`v`F`G`G`f`g`f`k`g`g`f`d`c`c`c`c`c`c`c`c`c`c`c`c`c`d`#`#`.`.`.`h`g`g`g`g```````.`.`#`#`#`.`.`.```.`.`#",
"`B`B`B`D`B`B`D`E`D`G`D`G`D`G`G`G`G`k`g`k`f`g`g`f`d`c`c`c`c`c`c`c`c`c`c`c`c`c`c`d`.```.```g`g`f`````````.`````.`#`.```.```.```#`#",
"`G`G`G`G`G`D`G`E`D`D`G`G`G`G`G`G`G`G`k`k`f`g`g`f`d`c`c`c`c`c`c`c`c`c`c`c`c`c`c`c`d`.`````g`f`f`````````````.```#`.`.`````````#`#",
"`G`G`G`G`G`G`G`D`G`H`G`H`H`H`H`H`H`G`B`B`f`g`g`f`d`c`c`c`c`c`c`c`c`c`c`c`e`c`c`c`c`d`````f`f`f`````````````````.`````````````.`#",
"`G`H`H`H`H`H`I`I`H`H`H`H`H`H`H`H`H`G`B`B`f`g`g`f`d`c`c`c`e`c`c`e`c`c`c`c`c`c`c`c`c`c`d```f`k`k```````````````.`.`````````````#`#",
"`H`H`H`H`H`H`I`J`H`H`H`H`H`H`H`K`K`K`B`B`f`g`g`d`c`c`c`c`c`c`c`c`c`c`c`c`c`e`c`c`c`c`d`k`k`k`````````````````.`#`````````````.`#",
"`H`H`H`H`H`H`I`J`I`H`I`H`H`H`H`K`K`B`B`B`f`i`g`d`c`c`c`c`e`c`c`c`e`c`c`c`c`c`e`c`c`e`d`k`k`k`````````````````.`#`.```.```````.`#",
"`H`H`H`H`I`I`J`J`J`I`H`I`H`H`H`K`K`B`B`B`f`i`g`d`c`c`c`c`e`c`c`c`e`c`c`c`c`c`c`e`e`d`k`k`k```````````````.`.`#`#`#`.```.`````.`b",
"`H`H`I`I`J`J`J`J`J`J`J`J`J`J`D`D`K`B`L`L`f`M`g`d`c`c`c`c`c`e`c`c`c`e`c`c`c`c`e`e`d`#`#`#`#`#`.`.`````.`.`#`#`#`#`#`#`#`#`#`#`b`b",
"`H`H`H`H`H`H`H`H`H`I`I`J`J`I`H`K`K`B`B`B`M`i`g`e`c`c`c`c`c`e`c`c`e`e`e`e`e`e`d`d```.`.`#`#`.```````````````````````.`.`#`#`.`#`#",
"`H`H`H`H`H`H`H`H`H`H`H`I`J`H`H`H`K`B`B`M`i`i`j`e`e`c`c`c`e`e`e`e`e`d`d`d`d`d```````````.`#`````````````````````````````.`#```#`#",
"`G`G`G`G`G`G`G`H`H`H`H`H`I`H`H`H`B`h`h`g`g`j`j`e`e`e`e`e`e`d`d`d`d`k`````````````````````.```````````````````````````````.```.`#",
"`G`G`G`G`G`I`H`H`H`H`N`I`I`H`H`H`B`g`g`g`f`k`B`d`d`d`d`d`d`k`k`k`k`````````.```````````.`.`````````````````.```````````.`.```#`.",
"`G`G`G`G`D`G`I`H`H`I`N`I`O`N`H`H`B`B`f`f`f`B`P`B`B`Q```.`k`f`f`f`````````.```.`````.```.`#```````````````.```.`````.```.`#```.`#",
"`G`D`D`D`D`R`R`I`I`J`I`O`O`I`H`H`B`x`L`L`P`P`P`P`P`S`.`#`#`.```````.`.`.`.`.`.`.`.`#`.`#`#`.```````.`.`.`.`.`.`.`.`#`.`#`#`.`#`#",
"`D`D`D`E`D`D`T`J`J`J`U`O`O`O`J`E`D`v`L`V`L`P`W`X`X`S`#`#`#`#`#`#`.`.`.`#`.`.`#`#`#`#`#`#`#`#`#`#`.`.`.`#`.`.`#`#`#`#`#`#`#`#`#`b",
"`G`G`F`F`D`D`T`J`J`I`I`I`N`I`H`H`G`B`B`B`P`P`W`W`X`.`.`.```.`````````````.`.`#`#`#`.`.`.```.`````````````.`.`#`#`#`.`.`.```.`.`#",
"`G`G`G`D`G`G`D`T`I`H`I`H`I`N`N`N`Y`B`B`L`G`B`P`W`P`Z`.```.`````````````.`````.`#`.```.```.`````````````.`````.`#`.```.```.```#`#"
};
