/* XPM */
static char *_8126f864fd64877f649024b4874d44dhpQFKEvvCTGg2E0X[] = {
/* columns rows colors chars-per-pixel */
"16 16 6 1 ",
"  c #42195D",
". c #5B276D",
"X c #742A81",
"o c #A76D9C",
"O c #DA94CC",
"+ c #F9B6E8",
/* pixels */
"XXXX.X ..XXXXXXX",
"XXXXXX.XX.. O O ",
"XXXXoO+++Oo Oo+ ",
"XX oO+++OOOo oOo",
"XX OOOOOOOOo  o ",
"XX O  O  OOo +o ",
"X. o..O..Ooo Oo ",
"XX oOOoOOOo oo .",
"XXX oOO+OOo   .X",
"XX.. + + O  o .X",
"X..Oo      oO .X",
"X +o  oOO  O o.X",
".+o    oO+   O.X",
".O  . o     O ..",
"XX ..  ooO+X.XXX",
"XX.XX. .X.X.XXXX"
};
