/* XPM */
static char *enemy_1_xpm[] = {
/* width height num_colors chars_per_pixel */
"    64    64      256            2",
/* colors */
"`` c #742a81",
"`. c #5b276d",
"`# c #42195d",
"`a c #2a2640",
"`b c #a76d9c",
"`c c #f9b6e8",
"`d c #da94cc",
"`e c #5d286f",
"`f c #461b60",
"`g c #5d276f",
"`h c #461a60",
"`i c #451a5f",
"`j c #752a82",
"`k c #752a81",
"`l c #5e286f",
"`m c #471b60",
"`n c #752b81",
"`o c #752b82",
"`p c #762b82",
"`q c #5f2870",
"`r c #5c276e",
"`s c #481b61",
"`t c #762a82",
"`u c #441a5e",
"`v c #5c276d",
"`w c #431a5e",
"`x c #5d276e",
"`y c #431a5d",
"`z c #742a82",
"`A c #762b83",
"`B c #491b62",
"`C c #5e2870",
"`D c #43195d",
"`E c #471b61",
"`F c #481b62",
"`G c #451a5e",
"`H c #43195e",
"`I c #752b83",
"`J c #000000",
"`K c #000000",
"`L c #000000",
"`M c #000000",
"`N c #000000",
"`O c #000000",
"`P c #000000",
"`Q c #000000",
"`R c #000000",
"`S c #000000",
"`T c #000000",
"`U c #000000",
"`V c #000000",
"`W c #000000",
"`X c #000000",
"`Y c #000000",
"`Z c #000000",
"`0 c #000000",
"`1 c #000000",
"`2 c #000000",
"`3 c #000000",
"`4 c #000000",
"`5 c #000000",
"`6 c #000000",
"`7 c #000000",
"`8 c #000000",
".` c #000000",
".. c #000000",
".# c #000000",
".a c #000000",
".b c #000000",
".c c #000000",
".d c #000000",
".e c #000000",
".f c #000000",
".g c #000000",
".h c #000000",
".i c #000000",
".j c #000000",
".k c #000000",
".l c #000000",
".m c #000000",
".n c #000000",
".o c #000000",
".p c #000000",
".q c #000000",
".r c #000000",
".s c #000000",
".t c #000000",
".u c #000000",
".v c #000000",
".w c #000000",
".x c #000000",
".y c #000000",
".z c #000000",
".A c #000000",
".B c #000000",
".C c #000000",
".D c #000000",
".E c #000000",
".F c #000000",
".G c #000000",
".H c #000000",
".I c #000000",
".J c #000000",
".K c #000000",
".L c #000000",
".M c #000000",
".N c #000000",
".O c #000000",
".P c #000000",
".Q c #000000",
".R c #000000",
".S c #000000",
".T c #000000",
".U c #000000",
".V c #000000",
".W c #000000",
".X c #000000",
".Y c #000000",
".Z c #000000",
".0 c #000000",
".1 c #000000",
".2 c #000000",
".3 c #000000",
".4 c #000000",
".5 c #000000",
".6 c #000000",
".7 c #000000",
".8 c #000000",
"#` c #000000",
"#. c #000000",
"## c #000000",
"#a c #000000",
"#b c #000000",
"#c c #000000",
"#d c #000000",
"#e c #000000",
"#f c #000000",
"#g c #000000",
"#h c #000000",
"#i c #000000",
"#j c #000000",
"#k c #000000",
"#l c #000000",
"#m c #000000",
"#n c #000000",
"#o c #000000",
"#p c #000000",
"#q c #000000",
"#r c #000000",
"#s c #000000",
"#t c #000000",
"#u c #000000",
"#v c #000000",
"#w c #000000",
"#x c #000000",
"#y c #000000",
"#z c #000000",
"#A c #000000",
"#B c #000000",
"#C c #000000",
"#D c #000000",
"#E c #000000",
"#F c #000000",
"#G c #000000",
"#H c #000000",
"#I c #000000",
"#J c #000000",
"#K c #000000",
"#L c #000000",
"#M c #000000",
"#N c #000000",
"#O c #000000",
"#P c #000000",
"#Q c #000000",
"#R c #000000",
"#S c #000000",
"#T c #000000",
"#U c #000000",
"#V c #000000",
"#W c #000000",
"#X c #000000",
"#Y c #000000",
"#Z c #000000",
"#0 c #000000",
"#1 c #000000",
"#2 c #000000",
"#3 c #000000",
"#4 c #000000",
"#5 c #000000",
"#6 c #000000",
"#7 c #000000",
"#8 c #000000",
"a` c #000000",
"a. c #000000",
"a# c #000000",
"aa c #000000",
"ab c #000000",
"ac c #000000",
"ad c #000000",
"ae c #000000",
"af c #000000",
"ag c #000000",
"ah c #000000",
"ai c #000000",
"aj c #000000",
"ak c #000000",
"al c #000000",
"am c #000000",
"an c #000000",
"ao c #000000",
"ap c #000000",
"aq c #000000",
"ar c #000000",
"as c #000000",
"at c #000000",
"au c #000000",
"av c #000000",
"aw c #000000",
"ax c #000000",
"ay c #000000",
"az c #000000",
"aA c #000000",
"aB c #000000",
"aC c #000000",
"aD c #000000",
"aE c #000000",
"aF c #000000",
"aG c #000000",
"aH c #000000",
"aI c #000000",
"aJ c #000000",
"aK c #000000",
"aL c #000000",
"aM c #000000",
"aN c #000000",
"aO c #000000",
"aP c #000000",
"aQ c #000000",
"aR c #000000",
"aS c #000000",
"aT c #000000",
"aU c #000000",
"aV c #000000",
"aW c #000000",
"aX c #000000",
"aY c #000000",
"aZ c #000000",
"a0 c #000000",
"a1 c #000000",
"a2 c #000000",
"a3 c #000000",
"a4 c #000000",
"a5 c #000000",
"a6 c #000000",
"a7 c #000000",
"a8 c #000000",
/* pixels */
"```````````.```#`.`.```````````````````````.```#`.`.```````````````````````.```#`.`.```````````````````````.```#`.`.`````````#`#",
"```````````````.```````````````````````````````.```````````````````````````````.```````````````````````````````.`````````````.`#",
"`````````````.`.`````````````````````````````.`.`````````````````````````````.`.`````````````````````````````.`.`````````````#`#",
"`````````````.`#`````````````````````````````.`#`````````````````````````````.`#`````````````````````````````.`#`````````````.`#",
"`````````````.`#`.```.```````````````````````.`#`.```.```````````````````````.`#`.```.```````````````````````.`#`.```.```````.`#",
"`````````.`.`#`#`#`.```.`````````````````.`.`#`#`#`.```.`````````````````.`.`#`#`#`.```.`````````````````.`.`#`#`#`.```.`````.`a",
"`````.`.`#`#`#`#`#`#`#`#`#`#`.`.`````.`.`#`#`#`#`#`#`#`#`#`#`.`.`````.`.`#`#`#`#`#`#`#`#`#`#`.`.`````.`.`#`#`#`#`#`#`#`#`#`#`a`a",
"```````````````````.`.`#`#`.```````````````````````.`.`#`#`.```````````````````````.`.`#`#`.```````````````````````.`.`#`#`.`#`#",
"```````````````````````.`#`````````````````````````````.`#`````````````````````````````.`#`````````````````````````````.`#```#`#",
"`````````````````````````.```````````````````````````````.```````````````````````````````.```````````````````````````````.```.`#",
"```````````.```````````.`.`````````````````.```````````.`.`````````````````.```````````.`.`````````````````.```````````.`.```#`.",
"`````````.```.`````.```.`#```````````````.```.`````.```.`#```````````````.```.`````.```.`#```````````````.```.`````.```.`#```.`#",
"```.`.`.`.`.`.`.`.`#`.`#`#`.```````.`.`.`.`.`.`.`.`#`.`#`#`.```````.`.`.`.`.`.`.`.`#`.`#`#`.```````.`.`.`.`.`.`.`.`#`.`#`#`.`#`#",
"`.`.`.`#`.`.`#`#`#`#`#`#`#`#`#`#`.`.`.`#`.`.`#`#`#`#`#`#`#`#`#`#`.`.`.`#`.`.`#`#`#`#`#`#`#`#`#`#`.`.`.`#`.`.`#`#`#`#`#`#`#`#`#`a",
"`````````.`.`#`#`#`.`.`.```.```````````#`#`#`#`#`#`#`.`.```.```````#`#`#`b`b`c`c`#`#`#`#`#`.`````````````.`.`#`#`#`.`.`.```.`.`#",
"```````.`````.`#`.```.```.`````````````#`#`#`#`#`#`#`.```.`````````#`#`#`b`b`c`c`#`#`#`#`#`````````````.`````.`#`.```.```.```#`#",
"```````````.```#`.`.`````````````#`#`#`b`b`#`#`#`.`.```````````#`#`#`#`#`d`d`d`d`c`c`c`c`c`#`#`#`#`#```````.```#`.`.`````````#`#",
"```````````````.`````````````````#`#`#`b`b`#`#`#```````````````#`#`#`#`#`d`d`d`d`c`c`c`c`c`#`#`#`#`#```````````.`````````````.`#",
"`````````````.`.`````````````````#`#`#`b`b`#`#`#```````````````#`#`#`#`#`d`d`d`d`c`c`c`c`c`#`#`#`#`#`````````.`.`````````````#`#",
"`````````````.`#`````````````#`#`b`b`b`b`b`#`#`#`````b`b`d`d`d`c`c`b`b`b`#`#`b`b`d`d`d`d`d`d`d`d`#`#`````````.`#`````````````.`#",
"`````````````.`#`.```.```````#`#`b`b`b`b`b`#`#`#`.```b`b`d`d`d`c`c`b`b`b`#`#`b`b`d`d`d`d`d`d`d`d`#`#`````````.`#`.```.```````.`#",
"`````````.`.`#`#`#`.```.`````#`#`b`b`b`d`d`#`#`#`#`#`#`#`#`#`#`#`#`#`#`#`#`#`#`#`#`#`#`b`b`b`b`b`#`#`````.`.`#`#`#`.```.`````.`a",
"`````.`.`#`#`#`#`#`#`#`#`#`#`#`#`b`b`b`d`d`#`#`#`#`#`#`#`#`#`#`#`#`#`#`#`#`#`#`#`#`#`#`b`b`b`b`b`#`#`.`.`#`#`#`#`#`#`#`#`#`#`a`a",
"```````````````````.`.`#`#`.`#`#`b`b`b`d`d`#`#`#`#`#`#`#`#`#`#`#`#`#`#`#`#`#`#`#`#`#`#`b`b`b`b`b`#`#```````````````.`.`#`#`.`#`#",
"```````````````````````.`#```#`#`b`b`b`c`c`#`#`#`b`b`d`d`c`c`c`c`c`d`d`d`#`#`b`b`b`b`b`b`b`#`#`#```````````````````````.`#```#`#",
"`````````````````````````.```#`#`b`b`b`c`c`#`#`#`b`b`d`d`c`c`c`c`c`d`d`d`#`#`b`b`b`b`b`b`b`#`#`#`````````````````````````.```.`#",
"```````````.```````````.`.```#`#`b`b`b`b`b`#`#`#`#`#`#`#`#`#`#`#`#`#`#`#`#`#`#`#`#`#`#`b`b`#`#`#```````````.```````````.`.```#`.",
"`````````.```.`````.```.`#```#`#`b`b`b`b`b`#`#`#`#`#`#`#`#`#`#`#`#`#`#`#`#`#`#`#`#`#`#`b`b`#`#`#`````````.```.`````.```.`#```.`#",
"```.`.`.`.`.`.`.`.`#`.`#`#`.`````#`#`#`#`#`d`d`d`d`d`d`d`d`d`d`#`#`#`#`#`b`b`b`b`#`#`#`#`#`.```````.`.`.`.`.`.`.`.`#`.`#`#`.`#`#",
"`.`.`.`#`.`.`#`#`#`#`#`#`#`#`#`#`#`#`#`#`#`d`d`d`d`d`d`d`d`d`d`#`#`#`#`#`b`b`b`b`#`#`#`#`#`#`#`#`.`.`.`#`.`.`#`#`#`#`#`#`#`#`#`a",
"`````````.`.`#`#`#`.`.`.```.`````#`#`#`#`#`d`d`d`d`d`d`d`d`d`d`#`#`#`#`#`b`b`b`b`#`#`#`.```.`````````````.`.`#`#`#`.`.`.```.`.`#",
"```````.`````.`#`.```.```.`````````````d`d`c`c`c`c`c`d`d`d`d`d`d`d`#`#`#`#`#`b`b`#`#`#```.`````````````.`````.`#`.```.```.```#`#",
"```````````.```#`.`.```````````````````d`d`c`c`c`c`c`d`d`d`d`d`d`d`#`#`#`#`#`b`b`#`#`#`````````````````````.```#`.`.`````````#`#",
"```````````````.`````````````````d`d`d`d`d`c`c`c`c`c`d`d`d`d`d`d`d`b`b`b`#`#`b`b```````````````````````````````.`````````````.`#",
"`````````````.`.`````````````````d`d`d`d`d`c`c`c`c`c`d`d`d`d`d`d`d`b`b`b`#`#`b`b`````````````````````````````.`.`````````````#`#",
"`````````````.`#`````````````````d`d`d`d`d`c`c`c`c`c`d`d`d`d`d`d`d`b`b`b`#`#`b`b`````````````````````````````.`#`````````````.`#",
"`````````````.`#`.```.```````````d`d`d`d`d`d`d`d`d`d`d`d`d`d`d`b`b`b`b`b`#`#`.`#`.```.`#`#```````````````````.`#`.```.```````.`#",
"`````````.`.`#`#`#`.```.`````````d`d`d`d`d`d`d`d`d`d`d`d`d`d`d`b`b`b`b`b`#`#`#`#`#`.```#`#```````````````.`.`#`#`#`.```.`````.`a",
"`````.`.`#`#`#`#`#`#`#`#`#`#`#`#`b`b`b`b`b`d`d`d`d`d`d`d`b`b`b`b`b`b`b`b`#`#`b`b`d`d`d`#`#`#`.`.`````.`.`#`#`#`#`#`#`#`#`#`#`a`a",
"```````````````````.`.`#`#`.`#`#`b`b`b`b`b`d`d`d`d`d`d`d`b`b`b`b`b`b`b`b`#`#`b`b`d`d`d`#`#`.```````````````````````.`.`#`#`.`#`#",
"```````````````````````.`#```#`#`b`b`b`b`b`b`b`b`b`b`b`b`b`b`b`b`b`#`#`#`#`#`b`b`d`d`d`#`#`````````````````````````````.`#```#`#",
"`````````````````````````.```#`#`b`b`b`b`b`b`b`b`b`b`b`b`b`b`b`b`b`#`#`#`#`#`b`b`d`d`d`#`#```````````````````````````````.```.`#",
"```````````.```````````.`.```#`#`b`b`b`b`b`b`b`b`b`b`b`b`b`b`b`b`b`#`#`#`#`#`b`b`d`d`d`#`#`````````````````.```````````.`.```#`.",
"`````````.```.`````.```.`#```````#`#`#`b`b`b`b`b`b`b`b`b`b`b`b`b`b`#`#`#`#`#`#`#`b`b`b`#`#```````````````.```.`````.```.`#```.`#",
"```.`.`.`.`.`.`.`.`#`.`#`#`.`````#`#`#`b`b`b`b`b`b`b`b`b`b`b`b`b`b`#`#`#`#`#`#`#`b`b`b`#`#`.```````.`.`.`.`.`.`.`.`#`.`#`#`.`#`#",
"`e`e`e`f`e`g`f`f`f`f`h`i`i`i`i`i`#`#`#`#`#`b`b`b`b`b`b`b`#`#`#`#`#`#`#`#`#`#`#`#`b`b`b`#`#`#`#`#`.`.`.`#`.`.`#`#`#`#`#`#`#`#`#`a",
"`j`````k`l`l`m`f`f`e`e`e`j`e`n`o`#`#`#`#`#`b`b`b`b`b`b`b`#`#`#`#`#`#`#`#`#`#`#`#`b`b`b`#`#`.`````````````.`.`#`#`#`.`.`.```.`.`#",
"`j`j`j`l`j`j`l`m`l`o`l`o`l`o`o`o`#`#`#`#`#`b`b`b`b`b`b`b`#`#`#`#`#`#`#`#`#`#`#`#`b`b`b`#`#`````````````.`````.`#`.```.```.```#`#",
"`o`o`o`o`o`l`o`m`l`l`o`o`o`o`o`o`o`o`j`#`#`#`#`#`#`#`#`#`#`#`#`#`#`````````.`#`#`.`.```#`#`````````````````.```#`.`.`````````#`#",
"`o`o`o`o`o`o`o`l`o`p`o`p`p`p`p`p`p`o`j`#`#`#`#`#`#`#`#`#`#`#`#`#`#```````````#`#```````#`#`````````````````````.`````````````.`#",
"`o`p`p`p`p`p`q`q`p`p`p`p`p`p`p`p`p`o`j`j`j`j`r`r`k```````````````````````````.`.`````````````````````````````.`.`````````````#`#",
"`p`p`p`p`p`p`q`s`p`p`p`p`p`p`p`t`t`t`j`j`j`j`r`u`k```````````````````````````.`#`````````````````````````````.`#`````````````.`#",
"`p`p`p`p`p`p`q`s`q`p`q`p`p`p`p`t`t`j`j`j`j`j`r`u`v```.```````````````````````.`#`.```.```````````````````````.`#`.```.```````.`#",
"`p`p`p`p`q`q`s`s`s`q`p`q`p`p`p`t`t`j`j`j`r`r`u`w`w`v```.`````````````````.`.`#`#`#`.```.`````````````````.`.`#`#`#`.```.`````.`a",
"`p`p`q`q`s`s`s`s`s`s`s`s`s`s`l`l`t`j`x`x`u`u`u`w`y`y`#`#`#`#`.`.`````.`.`#`#`#`#`#`#`#`#`#`#`.`.`````.`.`#`#`#`#`#`#`#`#`#`#`a`a",
"`p`p`p`p`p`p`p`p`p`q`q`s`s`q`p`t`t`j`j`j`j`j`j`j`k`v`.`#`#`.```````````````````````.`.`#`#`.```````````````````````.`.`#`#`.`#`#",
"`p`p`p`p`p`p`p`p`p`p`p`q`s`p`p`p`t`j`j`j`j`j`j`j`k`````.`#`````````````````````````````.`#`````````````````````````````.`#```#`#",
"`o`o`o`o`o`o`o`p`p`p`p`p`q`p`p`p`j`j`j`j`j`j`j`j`z```````.```````````````````````````````.```````````````````````````````.```.`#",
"`o`o`o`o`o`q`p`p`p`p`A`q`q`p`p`p`j`j`j`j`j`r`j`j`j`````.`.`````````````````.```````````.`.`````````````````.```````````.`.```#`.",
"`o`o`o`o`l`o`q`p`p`q`A`q`B`A`p`p`j`j`j`j`x`j`r`j`j`v```.`#```````````````.```.`````.```.`#```````````````.```.`````.```.`#```.`#",
"`o`l`l`l`l`C`C`q`q`s`q`B`B`q`p`p`j`g`x`x`r`r`r`r`r`D`.`#`#`.```````.`.`.`.`.`.`.`.`#`.`#`#`.```````.`.`.`.`.`.`.`.`#`.`#`#`.`#`#",
"`l`l`l`m`l`l`E`s`s`s`F`B`B`B`s`m`l`e`x`G`x`r`w`H`H`D`#`#`#`#`#`#`.`.`.`#`.`.`#`#`#`#`#`#`#`#`#`#`.`.`.`#`.`.`#`#`#`#`#`#`#`#`#`a",
"`o`o`n`n`l`l`E`s`s`q`q`q`A`q`p`p`o`j`j`j`r`r`w`w`H`.`.`.```.`````````````.`.`#`#`#`.`.`.```.`````````````.`.`#`#`#`.`.`.```.`.`#",
"`o`o`o`l`o`o`l`E`q`p`q`p`q`A`A`A`I`j`j`x`o`j`r`w`r`z`.```.`````````````.`````.`#`.```.```.`````````````.`````.`#`.```.```.```#`#"
};
