/* XPM */
static char *cat_right_3_xpm[] = {
/* width height num_colors chars_per_pixel */
"    64    64      256            2",
/* colors */
"`` c #742a81",
"`. c #5b276d",
"`# c #42195d",
"`a c #62784a",
"`b c #2a2640",
"`c c #171a0f",
"`d c #4e5332",
"`e c #243117",
"`f c #9f8965",
"`g c #e6daad",
"`h c #fdffd6",
"`i c #302d21",
"`j c #bd7247",
"`k c #cd9757",
"`l c #ab7b44",
"`m c #84ae56",
"`n c #364922",
"`o c #e2b179",
"`p c #80592d",
"`q c #bc8d57",
"`r c #3a1f1d",
"`s c #6b3840",
"`t c #8d4953",
"`u c #b34d5c",
"`v c #5d286f",
"`w c #461b60",
"`x c #5d276f",
"`y c #461a60",
"`z c #451a5f",
"`A c #441a5e",
"`B c #5c276e",
"`C c #431a5e",
"`D c #43195e",
"`E c #752a82",
"`F c #752a81",
"`G c #5e286f",
"`H c #471b60",
"`I c #752b81",
"`J c #752b82",
"`K c #742a82",
"`L c #762b82",
"`M c #5f2870",
"`N c #481b61",
"`O c #762a82",
"`P c #5d276e",
"`Q c #762b83",
"`R c #491b62",
"`S c #5c276d",
"`T c #5e2870",
"`U c #43195d",
"`V c #471b61",
"`W c #481b62",
"`X c #451a5e",
"`Y c #752b83",
"`Z c #000000",
"`0 c #000000",
"`1 c #000000",
"`2 c #000000",
"`3 c #000000",
"`4 c #000000",
"`5 c #000000",
"`6 c #000000",
"`7 c #000000",
"`8 c #000000",
".` c #000000",
".. c #000000",
".# c #000000",
".a c #000000",
".b c #000000",
".c c #000000",
".d c #000000",
".e c #000000",
".f c #000000",
".g c #000000",
".h c #000000",
".i c #000000",
".j c #000000",
".k c #000000",
".l c #000000",
".m c #000000",
".n c #000000",
".o c #000000",
".p c #000000",
".q c #000000",
".r c #000000",
".s c #000000",
".t c #000000",
".u c #000000",
".v c #000000",
".w c #000000",
".x c #000000",
".y c #000000",
".z c #000000",
".A c #000000",
".B c #000000",
".C c #000000",
".D c #000000",
".E c #000000",
".F c #000000",
".G c #000000",
".H c #000000",
".I c #000000",
".J c #000000",
".K c #000000",
".L c #000000",
".M c #000000",
".N c #000000",
".O c #000000",
".P c #000000",
".Q c #000000",
".R c #000000",
".S c #000000",
".T c #000000",
".U c #000000",
".V c #000000",
".W c #000000",
".X c #000000",
".Y c #000000",
".Z c #000000",
".0 c #000000",
".1 c #000000",
".2 c #000000",
".3 c #000000",
".4 c #000000",
".5 c #000000",
".6 c #000000",
".7 c #000000",
".8 c #000000",
"#` c #000000",
"#. c #000000",
"## c #000000",
"#a c #000000",
"#b c #000000",
"#c c #000000",
"#d c #000000",
"#e c #000000",
"#f c #000000",
"#g c #000000",
"#h c #000000",
"#i c #000000",
"#j c #000000",
"#k c #000000",
"#l c #000000",
"#m c #000000",
"#n c #000000",
"#o c #000000",
"#p c #000000",
"#q c #000000",
"#r c #000000",
"#s c #000000",
"#t c #000000",
"#u c #000000",
"#v c #000000",
"#w c #000000",
"#x c #000000",
"#y c #000000",
"#z c #000000",
"#A c #000000",
"#B c #000000",
"#C c #000000",
"#D c #000000",
"#E c #000000",
"#F c #000000",
"#G c #000000",
"#H c #000000",
"#I c #000000",
"#J c #000000",
"#K c #000000",
"#L c #000000",
"#M c #000000",
"#N c #000000",
"#O c #000000",
"#P c #000000",
"#Q c #000000",
"#R c #000000",
"#S c #000000",
"#T c #000000",
"#U c #000000",
"#V c #000000",
"#W c #000000",
"#X c #000000",
"#Y c #000000",
"#Z c #000000",
"#0 c #000000",
"#1 c #000000",
"#2 c #000000",
"#3 c #000000",
"#4 c #000000",
"#5 c #000000",
"#6 c #000000",
"#7 c #000000",
"#8 c #000000",
"a` c #000000",
"a. c #000000",
"a# c #000000",
"aa c #000000",
"ab c #000000",
"ac c #000000",
"ad c #000000",
"ae c #000000",
"af c #000000",
"ag c #000000",
"ah c #000000",
"ai c #000000",
"aj c #000000",
"ak c #000000",
"al c #000000",
"am c #000000",
"an c #000000",
"ao c #000000",
"ap c #000000",
"aq c #000000",
"ar c #000000",
"as c #000000",
"at c #000000",
"au c #000000",
"av c #000000",
"aw c #000000",
"ax c #000000",
"ay c #000000",
"az c #000000",
"aA c #000000",
"aB c #000000",
"aC c #000000",
"aD c #000000",
"aE c #000000",
"aF c #000000",
"aG c #000000",
"aH c #000000",
"aI c #000000",
"aJ c #000000",
"aK c #000000",
"aL c #000000",
"aM c #000000",
"aN c #000000",
"aO c #000000",
"aP c #000000",
"aQ c #000000",
"aR c #000000",
"aS c #000000",
"aT c #000000",
"aU c #000000",
"aV c #000000",
"aW c #000000",
"aX c #000000",
"aY c #000000",
"aZ c #000000",
"a0 c #000000",
"a1 c #000000",
"a2 c #000000",
"a3 c #000000",
"a4 c #000000",
"a5 c #000000",
"a6 c #000000",
"a7 c #000000",
"a8 c #000000",
/* pixels */
"```````````.```#`.`.```````````````````````.```#`.`.```````````````````````.```#`.`.```````````````````````.```#`.`.`````````#`#",
"```````````````.```````````````````````````````.```````````````````````````````.```````````````````````````````.`````````````.`#",
"`````````````.`.`````````````````````````````.`.`````````````````````````````.`.`````````````````````````````.`.`````````````#`#",
"`````````````.`#`````````````````````````````.`#`````````````````````````````.`#`````````````````````````````.`#`````````````.`#",
"`````````````.`#`.```.```````````````````````.`#`.```.```a```````a```````````.`#`.```.```````````````````````.`#`.```.```````.`#",
"`````````.`.`#`#`#`.```.`````````````````.`.`#`#`#`.```.`a`a`````a`a`````.`.`#`#`#`.```.`````````````````.`.`#`#`#`.```.`````.`b",
"`````.`.`#`#`#`#`#`#`#`#`#`#`.`.`````.`.`#`#`#`#`#`#`#`#`c`a`a`c`d`a`a`.`#`#`#`#`#`#`#`#`#`#`.`.`````.`.`#`#`#`#`#`#`#`#`#`#`b`b",
"```````````````````.`.`#`#`.```````````````````````.`.`c`d`d`a`a`e`d`a`a```````````.`.`#`#`.```````````````````````.`.`#`#`.`#`#",
"```````````````````````.`#`````````````````````````````c`d`d`d`a`a`e`d`a`a`````````````.`#`````````````````````````````.`#```#`#",
"`````````````````````````.`````````````````````````````c`d`d`d`d`a`a`a`e`a`a`````````````.```````````````````````````````.```.`#",
"```````````.```````````.`.`````````````````.`````````c`e`d`d`d`d`d`a`a`a`a`e`a`````````.`.`````````````````.```````````.`.```#`.",
"`````````.```.`````.```.`#```````````````.```.`````.`c`e`d`d`d`d`d`d`d`a`a`a`a`a`a`a```.`#```````````````.```.`````.```.`#```.`#",
"```.`.`.`.`.`.`.`.`#`.`#`#`.```````.`.`.`.`.`.`.`.`#`c`e`e`d`d`d`d`d`d`e`e`a`a`a`a`a`a`a`#`.```````.`.`.`.`.`.`.`.`#`.`#`#`.`#`#",
"`.`.`.`#`.`.`#`#`#`#`#`#`#`#`#`#`.`.`.`#`.`.`#`#`#`#`c`e`e`e`d`d`d`d`e`d`d`d`d`d`d`d`d`a`a`a`#`#`.`.`.`#`.`.`#`#`#`#`#`#`#`#`#`b",
"`````````.`.`#`#`#`.`.`.```.`````````````.`.`#`#`#`.`c`e`e`e`e`e`e`d`d`d`d`d`d`d`d`d`d`d`d`a`a```````````.`.`#`#`#`.`.`.```.`.`#",
"```````.`````.`#`.```.```.`````````````.`````.`#`.```c`e`e`e`e`e`d`d`d`d`d`d`d`d`d`d`d`d`d`d`a`a```````.`````.`#`.```.```.```#`#",
"```````````.```#`.`.```````````````````````.```#`.`.`c`e`e`e`e`d`d`d`d`d`d`d`d`d`d`d`d`d`d`a`a`a```````````.```#`.`.`````````#`#",
"```````````````.```````````````````````````````.`````c`e`e`d`d`d`d`d`d`d`d`d`d`d`d`d`d`a`a`f`f`````````````````.`````````````.`#",
"`````````````.`.`````````````````````````````.`.```````c`d`d`d`d`d`d`d`d`d`d`d`d`d`a`a`f`f`g`g`f`````````````.`.`````````````#`#",
"`````````````.`#`````````````````````````````.`#`````c`d`d`d`d`d`d`d`d`d`d`d`d`d`a`f`g`g`g`g`h`f`````````````.`#`````````````.`#",
"`````````````.`#`.```.```````````````````````.`#`.```c`d`d`d`d`d`d`d`d`d`d`d`d`d`a`g`g`g`f`i`i`g`````````````.`#`.```.```````.`#",
"`````````.`.`#`#`#`.```.`````````````````.`.`#`#`#`c`e`d`d`d`d`d`d`d`d`d`d`d`d`a`j`k`g`g`g`g`g`g`````````.`.`#`#`#`.```.`````.`b",
"`````.`.`#`#`#`#`#`#`#`#`#`#`.`.`````.`.`#`#`#`#`#`c`e`d`d`d`d`d`d`d`d`d`d`d`d`a`l`k`k`g`h`f`g`g`````.`.`#`#`#`#`#`#`#`#`#`#`b`b",
"```````````````````.`.`#`#`.`````````````````````c`e`d`d`d`d`d`d`d`d`d`d`d`d`e`a`k`l`i`i`m`n`g`g```````````````````.`.`#`#`.`#`#",
"```````````````````````.`#`````````````````````c`d`d`d`d`d`d`d`d`d`d`d`d`d`e`a`j`k`k`o`m`m`n`g`g```````````````````````.`#```#`#",
"`````````````````````````.```````````````````c`e`e`d`d`d`d`d`d`d`d`d`d`d`e`a`p`l`l`q`q`q`m`n`g`g`g```````````````````````.```.`#",
"```````````.```````````.`.`````````````````c`e`e`e`e`d`d`d`d`d`d`d`d`d`e`a`j`j`k`k`k`k`o`o`g`g`h`i`i```````.```````````.`.```#`.",
"`````````.```.`````.```.`#```````````````.```c`e`e`e`e`d`d`d`d`d`d`d`d`d`e`c`p`p`l`l`g`g`g`g`g`g`g`f`````.```.`````.```.`#```.`#",
"```.`.`.`.`.`.`.`.`#`.`#`#`.```````.`.`.`.`.`.`c`e`e`e`e`e`d`d`d`d`d`d`d`d`e`c`j`j`g`g`g`g`g`g`g`g`f`.`.`.`.`.`.`.`#`.`#`#`.`#`#",
"`.`.`.`#`.`.`#`#`#`#`#`#`#`#`#`#`.`.`.`#`.`.`#`#`c`c`e`e`e`e`d`d`d`d`d`d`d`d`e`c`f`f`g`g`g`g`g`g`f`.`.`#`.`.`#`#`#`#`#`#`#`#`#`b",
"`````````.`.`#`#`#`.`.`.```.`````````````.`.`#`#`#`.`c`c`e`e`e`e`e`d`d`d`d`d`d`e`c`f`f`g`g`g`g`f`````````.`.`#`#`#`.`.`.```.`.`#",
"```````.`````.`#`.```.```.`````````````.`````.`#`.```.```c`c`e`e`e`e`e`e`e`e`e`e`e`c`c`f`f`f```````````.`````.`#`.```.```.```#`#",
"```````````.```#`.`.```````````````````````.```#`.`.`````````c`c`c`c`c`c`c`c`c`c`c`c`c`c```````````````````.```#`.`.`````````#`#",
"```````````````.```````````````````````````````.```````````````````c`e`e`e`e`e`e`c`r`s`s```````````````````````.`````````````.`#",
"`````````````.`.`````````````````````````````.`.`````````````````c`e`e`e`e`e`e`e`c`r`s`t`u```````````````````.`.`````````````#`#",
"`````````````.`#`````````````````````````````.`#`````````````````c`e`e`e`e`e`e`e`c`i`r`s`t`u`````````````````.`#`````````````.`#",
"`````````````.`#`.```.```````````````````````.`#`.```.`````````c`e`e`e`e`e`d`e`e`c`i`i`r`s`t`````````````````.`#`.```.```````.`#",
"`````````.`.`#`#`#`.```.`````````````````.`.`#`#`#`.```.```````c`e`e`e`d`e`d`d`e`c`i`i`i`r`r`````````````.`.`#`#`#`.```.`````.`b",
"`````.`.`#`#`#`#`#`#`#`#`#`#`.`.`````.`.`#`#`#`#`#`#`#`#`#`#`c`e`e`d`d`d`e`d`d`e`c`i`f`g`f`#`.`.`````.`.`#`#`#`#`#`#`#`#`#`#`b`b",
"```````````````````.`.`#`#`.```````````````````````.`.`#`#`.`c`d`e`d`d`e`d`d`d`e`c`f`f`g`f`.```````````````````````.`.`#`#`.`#`#",
"```````````````````````.`#`````````````````````````````.`#`c`d`d`d`d`d`e`d`d`d`c`i`f`g`h`f`````````````````````````````.`#```#`#",
"`````````````````````````.```````````````````````````````.`c`d`d`d`d`d`d`d`d`d`c`i`g`g`h`h```````````````````````````````.```.`#",
"```````````.```````````.`.`````````````````.```````````.`c`d`d`d`d`d`d`e`d`d`d`c`i`f`g`g`h`h```````````````.```````````.`.```#`.",
"`````````.```.`````.```.`#`````h`h`h`````.```.`````.```.`c`d`d`d`d`d`d`d`d`d`d`c`i`i`f`g`g`h`````````````.```.`````.```.`#```.`#",
"```.`.`.`.`.`.`.`.`#`.`#`#`.`h`g`g`g`h`.`.`.`.`.`.`#`.`c`d`d`d`d`d`d`d`d`d`d`d`c`i`i`f`f`g`h`h`````.`.`.`.`.`.`.`.`#`.`#`#`.`#`#",
"`v`v`v`w`v`x`w`w`w`w`y`z`z`z`g`g`g`g`g`A`B`B`C`C`C`D`c`d`d`d`d`d`d`d`d`d`d`d`d`c`i`g`i`f`g`g`f`#`.`.`.`#`.`.`#`#`#`#`#`#`#`#`#`b",
"`E`````F`G`G`H`w`w`v`v`v`E`v`I`g`g`g`g`h`B`B`C`C`C`c`d`d`d`d`d`d`d`d`d`d`d`d`d`c`f`g`g`i`f`g`f```````````.`.`#`#`#`.`.`.```.`.`#",
"`E`E`E`G`E`E`G`H`G`J`G`J`G`J`J`J`J`f`g`g`K`K`B`C`c`d`d`d`d`d`d`d`d`d`d`d`d`d`d`c`f`g`g`f`i`g`i`````````.`````.`#`.```.```.```#`#",
"`J`J`J`J`J`G`J`H`G`G`J`J`J`J`J`J`J`f`f`g`E`B`K`c`d`d`d`d`d`d`d`d`d`d`d`d`d`d`d`c`j`k`g`f`i`i```````````````.```#`.`.`````````#`#",
"`J`J`J`J`J`J`J`G`J`L`J`L`L`L`L`L`L`f`f`f`E`E`c`d`d`d`d`e`d`d`d`d`d`d`d`d`d`d`d`c`p`l`l`f```````````````````````.`````````````.`#",
"`J`L`L`L`L`L`M`M`L`L`L`L`L`L`L`L`L`i`i`f`E`c`d`d`d`d`d`d`d`d`d`d`e`d`d`e`d`d`d`c`j`k`g`f`````````````````````.`.`````````````#`#",
"`L`L`L`L`L`L`M`N`L`L`L`L`L`L`L`O`O`O`i`i`i`c`d`d`d`d`e`d`d`d`d`d`d`d`d`d`d`d`d`d`c`g`g`f`````````````````````.`#`````````````.`#",
"`L`L`L`L`L`L`M`N`M`L`M`L`L`L`L`O`O`E`i`i`i`c`e`d`d`e`d`d`d`d`d`e`d`d`d`e`d`d`d`d`c`g`g`f`````````````````````.`#`.```.```````.`#",
"`L`L`L`L`M`M`N`N`N`M`L`M`L`L`L`O`O`E`E`i`i`i`c`e`e`d`d`d`d`d`d`e`d`d`d`e`d`d`d`d`c`g`g`f`````````````````.`.`#`#`#`.```.`````.`b",
"`L`L`M`M`N`N`N`N`N`N`N`N`N`N`G`G`O`E`P`P`A`A`A`c`e`e`d`d`d`d`e`d`d`d`e`d`d`d`d`d`c`g`h`f`#`#`.`.`````.`.`#`#`#`#`#`#`#`#`#`#`b`b",
"`L`L`L`L`L`L`L`L`L`M`M`N`N`M`L`O`O`E`E`E`E`E`E`E`c`c`e`e`e`e`e`e`d`d`e`d`d`d`d`d`e`g`g`h`#`.```````````````````````.`.`#`#`.`#`#",
"`L`L`L`L`L`L`L`L`L`L`L`M`N`L`L`L`O`E`E`E`E`E`E`E`F```c`c`c`c`c`e`e`e`e`e`d`d`d`e`e`f`g`g`h`````````````````````````````.`#```#`#",
"`J`J`J`J`J`J`J`L`L`L`L`L`M`L`L`L`E`E`E`E`E`E`E`E`K```````.```i`c`c`c`c`e`e`e`e`e`e`f`f`g`g`h`h```````````````````````````.```.`#",
"`J`J`J`J`J`M`L`L`L`L`Q`M`M`L`L`L`E`E`E`E`E`B`E`E`E`````.`.`````i`i`i`i`c`c`c`c`c`c```i`f`g`g`g`````````````.```````````.`.```#`.",
"`J`J`J`J`G`J`M`L`L`M`Q`M`R`Q`L`L`E`E`E`E`P`E`B`E`E`S```.`#```````f`f`f`i`.```.`````.```f`f`f`````````````.```.`````.```.`#```.`#",
"`J`G`G`G`G`T`T`M`M`N`M`R`R`M`L`L`E`x`P`P`B`B`B`B`B`U`.`#`#`.```````.`.`.`.`.`.`.`.`#`.`#`#`.```````.`.`.`.`.`.`.`.`#`.`#`#`.`#`#",
"`G`G`G`H`G`G`V`N`N`N`W`R`R`R`N`H`G`v`P`X`P`B`C`D`D`U`#`#`#`#`#`#`.`.`.`#`.`.`#`#`#`#`#`#`#`#`#`#`.`.`.`#`.`.`#`#`#`#`#`#`#`#`#`b",
"`J`J`I`I`G`G`V`N`N`M`M`M`Q`M`L`L`J`E`E`E`B`B`C`C`D`.`.`.```.`````````````.`.`#`#`#`.`.`.```.`````````````.`.`#`#`#`.`.`.```.`.`#",
"`J`J`J`G`J`J`G`V`M`L`M`L`M`Q`Q`Q`Y`E`E`P`J`E`B`C`B`K`.```.`````````````.`````.`#`.```.```.`````````````.`````.`#`.```.```.```#`#"
};
