/* XPM */
static char *cat_right_0_xpm[] = {
/* width height num_colors chars_per_pixel */
"    64    64      256            2",
/* colors */
"`` c #742a81",
"`. c #5b276d",
"`# c #42195d",
"`a c #62784a",
"`b c #4e5332",
"`c c #2a2640",
"`d c #171a0f",
"`e c #243117",
"`f c #9f8965",
"`g c #e6daad",
"`h c #fdffd6",
"`i c #302d21",
"`j c #bd7247",
"`k c #cd9757",
"`l c #ab7b44",
"`m c #84ae56",
"`n c #364922",
"`o c #e2b179",
"`p c #80592d",
"`q c #bc8d57",
"`r c #3a1f1d",
"`s c #6b3840",
"`t c #8d4953",
"`u c #b34d5c",
"`v c #5d286f",
"`w c #461b60",
"`x c #5d276f",
"`y c #461a60",
"`z c #451a5f",
"`A c #5d286e",
"`B c #5c286e",
"`C c #441a5e",
"`D c #5c276e",
"`E c #431a5e",
"`F c #752a82",
"`G c #752a81",
"`H c #5e286f",
"`I c #471b60",
"`J c #742a82",
"`K c #752b82",
"`L c #762b82",
"`M c #5f2870",
"`N c #481b61",
"`O c #762a82",
"`P c #5d276e",
"`Q c #5c276d",
"`R c #762b83",
"`S c #491b62",
"`T c #5e2870",
"`U c #43195d",
"`V c #471b61",
"`W c #481b62",
"`X c #451a5e",
"`Y c #43195e",
"`Z c #752b81",
"`0 c #752b83",
"`1 c #000000",
"`2 c #000000",
"`3 c #000000",
"`4 c #000000",
"`5 c #000000",
"`6 c #000000",
"`7 c #000000",
"`8 c #000000",
".` c #000000",
".. c #000000",
".# c #000000",
".a c #000000",
".b c #000000",
".c c #000000",
".d c #000000",
".e c #000000",
".f c #000000",
".g c #000000",
".h c #000000",
".i c #000000",
".j c #000000",
".k c #000000",
".l c #000000",
".m c #000000",
".n c #000000",
".o c #000000",
".p c #000000",
".q c #000000",
".r c #000000",
".s c #000000",
".t c #000000",
".u c #000000",
".v c #000000",
".w c #000000",
".x c #000000",
".y c #000000",
".z c #000000",
".A c #000000",
".B c #000000",
".C c #000000",
".D c #000000",
".E c #000000",
".F c #000000",
".G c #000000",
".H c #000000",
".I c #000000",
".J c #000000",
".K c #000000",
".L c #000000",
".M c #000000",
".N c #000000",
".O c #000000",
".P c #000000",
".Q c #000000",
".R c #000000",
".S c #000000",
".T c #000000",
".U c #000000",
".V c #000000",
".W c #000000",
".X c #000000",
".Y c #000000",
".Z c #000000",
".0 c #000000",
".1 c #000000",
".2 c #000000",
".3 c #000000",
".4 c #000000",
".5 c #000000",
".6 c #000000",
".7 c #000000",
".8 c #000000",
"#` c #000000",
"#. c #000000",
"## c #000000",
"#a c #000000",
"#b c #000000",
"#c c #000000",
"#d c #000000",
"#e c #000000",
"#f c #000000",
"#g c #000000",
"#h c #000000",
"#i c #000000",
"#j c #000000",
"#k c #000000",
"#l c #000000",
"#m c #000000",
"#n c #000000",
"#o c #000000",
"#p c #000000",
"#q c #000000",
"#r c #000000",
"#s c #000000",
"#t c #000000",
"#u c #000000",
"#v c #000000",
"#w c #000000",
"#x c #000000",
"#y c #000000",
"#z c #000000",
"#A c #000000",
"#B c #000000",
"#C c #000000",
"#D c #000000",
"#E c #000000",
"#F c #000000",
"#G c #000000",
"#H c #000000",
"#I c #000000",
"#J c #000000",
"#K c #000000",
"#L c #000000",
"#M c #000000",
"#N c #000000",
"#O c #000000",
"#P c #000000",
"#Q c #000000",
"#R c #000000",
"#S c #000000",
"#T c #000000",
"#U c #000000",
"#V c #000000",
"#W c #000000",
"#X c #000000",
"#Y c #000000",
"#Z c #000000",
"#0 c #000000",
"#1 c #000000",
"#2 c #000000",
"#3 c #000000",
"#4 c #000000",
"#5 c #000000",
"#6 c #000000",
"#7 c #000000",
"#8 c #000000",
"a` c #000000",
"a. c #000000",
"a# c #000000",
"aa c #000000",
"ab c #000000",
"ac c #000000",
"ad c #000000",
"ae c #000000",
"af c #000000",
"ag c #000000",
"ah c #000000",
"ai c #000000",
"aj c #000000",
"ak c #000000",
"al c #000000",
"am c #000000",
"an c #000000",
"ao c #000000",
"ap c #000000",
"aq c #000000",
"ar c #000000",
"as c #000000",
"at c #000000",
"au c #000000",
"av c #000000",
"aw c #000000",
"ax c #000000",
"ay c #000000",
"az c #000000",
"aA c #000000",
"aB c #000000",
"aC c #000000",
"aD c #000000",
"aE c #000000",
"aF c #000000",
"aG c #000000",
"aH c #000000",
"aI c #000000",
"aJ c #000000",
"aK c #000000",
"aL c #000000",
"aM c #000000",
"aN c #000000",
"aO c #000000",
"aP c #000000",
"aQ c #000000",
"aR c #000000",
"aS c #000000",
"aT c #000000",
"aU c #000000",
"aV c #000000",
"aW c #000000",
"aX c #000000",
"aY c #000000",
"aZ c #000000",
"a0 c #000000",
"a1 c #000000",
"a2 c #000000",
"a3 c #000000",
"a4 c #000000",
"a5 c #000000",
"a6 c #000000",
"a7 c #000000",
"a8 c #000000",
/* pixels */
"```````````.```#`.`.```````````````````````.```#`.`.```````````````````````.```#`.`.```````````````````````.```#`.`.`````````#`#",
"```````````````.```````````````````````````````.```````````````````````````````.```````````````````````````````.`````````````.`#",
"`````````````.`.`````````````````````````````.`.`````````````````````````````.`.`````````````````````````````.`.`````````````#`#",
"`````````````.`#`````````````````````````````.`#`````````````````````````````.`#`````````````````````````````.`#`````````````.`#",
"`````````````.`#`.```.```````````````````````.`#`.```.```````````````````````.`#`.```.```````````````````````.`#`.```.```````.`#",
"`````````.`.`#`#`#`.```.`````````````````.`.`#`a`a`a`a`a`b`a`````````````.`.`#`#`#`.```.`````````````````.`.`#`#`#`.```.`````.`c",
"`````.`.`#`#`#`#`#`#`#`#`#`#`.`.`````.`.`#`#`#`d`b`b`b`b`a`a`b`a`````.`.`#`#`#`#`#`#`#`#`#`#`.`.`````.`.`#`#`#`#`#`#`#`#`#`#`c`c",
"```````````````````.`.`#`#`.```````````````````d`b`b`b`b`b`b`a`a`b`a```````````````.`.`#`#`.```````````````````````.`.`#`#`.`#`#",
"```````````````````````.`#`````````````````````d`e`b`b`b`b`b`b`b`a`a`b`a```````````````.`#`````````````````````````````.`#```#`#",
"`````````````````````````.```````````````````````d`e`b`b`b`b`b`b`b`b`a`a`b`a`````````````.```````````````````````````````.```.`#",
"```````````.```````````.`.`````````````````.`````d`e`e`b`b`b`b`b`b`b`b`b`a`a`a`a`a`a```.`.`````````````````.```````````.`.```#`.",
"`````````.```.`````.```.`#```````````````.```.`````d`e`e`e`b`b`b`b`b`b`e`e`a`a`a`a`a`a`a`#```````````````.```.`````.```.`#```.`#",
"```.`.`.`.`.`.`.`.`#`.`#`#`.```````.`.`.`.`.`.`.`.`d`e`e`e`e`e`b`b`b`e`b`b`b`b`b`b`b`b`a`a`a```````.`.`.`.`.`.`.`.`#`.`#`#`.`#`#",
"`.`.`.`#`.`.`#`#`#`#`#`#`#`#`#`#`.`.`.`#`.`.`#`#`#`#`d`e`e`e`e`e`e`b`b`b`b`b`b`b`b`b`b`b`b`a`a`#`.`.`.`#`.`.`#`#`#`#`#`#`#`#`#`c",
"`````````.`.`#`#`#`.`.`.```.`````````````.`.`#`#`#`.`d`e`e`e`e`e`b`b`b`b`b`b`b`b`b`b`b`b`b`b`a`a`````````.`.`#`#`#`.`.`.```.`.`#",
"```````.`````.`#`.```.```.`````````````.`````.`#`.```d`e`e`e`e`b`b`b`b`b`b`b`b`b`b`b`b`b`b`a`a`a```````.`````.`#`.```.```.```#`#",
"```````````.```#`.`.```````````````````````.```#`.`.`d`e`e`b`b`b`b`b`b`b`b`b`b`b`b`b`b`a`a`f`f`````````````.```#`.`.`````````#`#",
"```````````````.```````````````````````````````.```````d`b`b`b`b`b`b`b`b`b`b`b`b`b`a`a`f`f`g`g`f```````````````.`````````````.`#",
"`````````````.`.`````````````````````````````.`.`````d`b`b`b`b`b`b`b`b`b`b`b`b`b`a`f`g`g`g`g`h`f`````````````.`.`````````````#`#",
"`````````````.`#`````````````````````````````.`#`````d`b`b`b`b`b`b`b`b`b`b`b`b`b`a`g`g`g`f`i`i`g`````````````.`#`````````````.`#",
"`````````````.`#`.```.```````````````````````.`#`.`d`e`b`b`b`b`b`b`b`b`b`b`b`b`a`j`k`g`g`g`g`g`g`````````````.`#`.```.```````.`#",
"`````````.`.`#`#`#`.```.`````````````````.`.`#`#`#`d`e`b`b`b`b`b`b`b`b`b`b`b`b`a`l`k`k`g`h`f`g`g`````````.`.`#`#`#`.```.`````.`c",
"`````.`.`#`#`#`#`#`#`#`#`#`#`.`.`````.`.`#`#`#`#`d`e`b`b`b`b`b`b`b`b`b`b`b`b`e`a`k`l`i`i`m`n`g`g`````.`.`#`#`#`#`#`#`#`#`#`#`c`c",
"```````````````````.`.`#`#`.```````````````````d`b`b`b`b`b`b`b`b`b`b`b`b`b`e`a`j`k`k`o`m`m`n`g`g```````````````````.`.`#`#`.`#`#",
"```````````````````````.`#```````````````````d`e`e`b`b`b`b`b`b`b`b`b`b`b`e`a`p`l`l`q`q`q`m`n`g`g`g`````````````````````.`#```#`#",
"`````````````````````````.`````````````````d`e`e`e`e`b`b`b`b`b`b`b`b`b`e`a`j`j`k`k`k`k`o`o`g`g`h`i`i`````````````````````.```.`#",
"```````````.```````````.`.`````````````````.`d`e`e`e`e`b`b`b`b`b`b`b`b`b`e`d`p`p`l`l`g`g`g`g`g`g`g`f```````.```````````.`.```#`.",
"`````````.```.`````.```.`#```````````````.```.`d`e`e`e`e`e`b`b`b`b`b`b`b`b`e`d`j`j`g`g`g`g`g`g`g`g`f`````.```.`````.```.`#```.`#",
"```.`.`.`.`.`.`.`.`#`.`#`#`.```````.`.`.`.`.`.`.`d`d`e`e`e`e`b`b`b`b`b`b`b`b`e`d`f`f`g`g`g`g`g`g`f`.`.`.`.`.`.`.`.`#`.`#`#`.`#`#",
"`.`.`.`#`.`.`#`#`#`#`#`#`#`#`#`#`.`.`.`#`.`.`#`#`#`#`d`d`e`e`e`e`e`b`b`b`b`b`b`e`d`f`f`g`g`g`g`f`.`.`.`#`.`.`#`#`#`#`#`#`#`#`#`c",
"`````````.`.`#`#`#`.`.`.```.`````````````.`.`#`#`#`.`.`.`d`d`e`e`e`e`e`e`e`e`e`e`e`d`d`f`f`f`````````````.`.`#`#`#`.`.`.```.`.`#",
"```````.`````.`#`.```.```.`````````````.`````.`#`.```.```.```d`d`d`d`d`d`d`d`d`d`d`d`d`d`.`````````````.`````.`#`.```.```.```#`#",
"```````````.```#`.`.```````````````````````.```#`.`.```````````````d`e`e`e`e`e`e`d`r`s`s```````````````````.```#`.`.`````````#`#",
"```````````````.```````````````````````````````.`````````````````d`e`e`e`e`e`e`e`d`r`s`t`u`````````````````````.`````````````.`#",
"`````````````.`.`````````````````````````````.`.`````````````````d`e`e`e`e`e`e`e`d`i`r`s`t`u`````````````````.`.`````````````#`#",
"`````````````.`#`````````````````````````````.`#```````````````d`e`e`e`e`e`b`e`e`d`i`i`r`s`t`````````````````.`#`````````````.`#",
"`````````````.`#`.```.```````````````````````.`#`.```.`````````d`e`e`e`b`e`b`b`e`d`i`i`i`r`r`````````````````.`#`.```.```````.`#",
"`````````.`.`#`#`#`.```.`````````````````.`.`#`#`#`.```.`````d`e`e`b`b`b`e`b`b`e`d`i`f`g`f```````````````.`.`#`#`#`.```.`````.`c",
"`````.`.`#`#`#`#`#`#`#`#`#`#`.`.`````.`.`#`#`#`#`#`#`#`#`#`#`d`b`e`b`b`e`b`b`b`e`d`f`f`g`f`#`.`.`````.`.`#`#`#`#`#`#`#`#`#`#`c`c",
"```````````````````.`.`#`#`.```````````````````````.`.`#`#`d`b`b`b`b`b`e`b`b`b`d`i`f`g`h`f`.```````````````````````.`.`#`#`.`#`#",
"```````````````````````.`#`````````````````````````````.`#`d`b`b`b`b`b`b`b`b`b`d`i`g`g`h`h`````````````````````````````.`#```#`#",
"`````````````````````````.```````````````````````````````d`b`b`b`b`b`b`e`b`b`b`d`i`f`g`g`h`h`````````````````````````````.```.`#",
"```````````.```````````.`.`````````````````.```````````.`d`b`b`b`b`b`b`b`b`b`b`d`i`i`f`g`g`h```````````````.```````````.`.```#`.",
"`````````.```.`````.```.`#```````````````.```.`````.```d`b`b`b`b`b`b`b`b`b`b`b`d`i`i`f`f`g`h`h```````````.```.`````.```.`#```.`#",
"```.`.`.`.`.`.`.`.`#`.`#`#`.```````.`.`.`.`.`.`.`.`#`d`b`b`b`b`b`b`b`b`b`b`b`b`d`i`g`i`f`g`g`f`````.`.`.`.`.`.`.`.`#`.`#`#`.`#`#",
"`v`v`v`w`v`x`w`w`w`w`y`z`z`z`z`z`A`A`B`C`D`D`E`E`E`d`b`b`b`b`b`b`b`b`b`b`b`b`b`d`f`g`g`i`f`g`f`#`.`.`.`#`.`.`#`#`#`#`#`#`#`#`#`c",
"`F`````G`H`H`I`w`w`v`v`v`F`v`h`h`h`h`F`J`D`D`E`E`d`b`b`b`b`b`b`b`b`b`b`b`b`b`b`d`f`g`g`f`i`g`i```````````.`.`#`#`#`.`.`.```.`.`#",
"`F`F`F`H`F`F`H`I`H`K`H`K`H`h`g`g`g`g`h`D`J`J`D`d`b`b`b`b`b`b`b`b`b`b`b`b`b`b`b`d`j`k`g`f`i`i```````````.`````.`#`.```.```.```#`#",
"`K`K`K`K`K`H`K`I`H`H`K`K`K`g`g`g`g`g`g`h`F`D`d`b`b`b`b`e`b`b`b`b`b`b`b`b`b`b`b`d`p`l`l`f```````````````````.```#`.`.`````````#`#",
"`K`K`K`K`K`K`K`H`K`L`K`L`L`L`g`g`g`g`g`g`F`d`b`b`b`b`b`b`b`b`b`b`e`b`b`e`b`b`b`d`j`k`g`f```````````````````````.`````````````.`#",
"`K`L`L`L`L`L`M`M`L`L`L`L`L`L`L`L`L`f`f`f`g`d`b`b`b`b`e`b`b`b`b`b`b`b`b`b`b`b`b`b`d`g`g`f`````````````````````.`.`````````````#`#",
"`L`L`L`L`L`L`M`N`L`L`L`L`L`L`L`O`O`O`i`i`i`d`e`b`b`e`b`b`b`b`b`e`b`b`b`e`b`b`b`b`d`g`g`f`````````````````````.`#`````````````.`#",
"`L`L`L`L`L`L`M`N`M`L`M`L`L`L`L`O`O`F`F`i`i`i`d`e`e`b`b`b`b`b`b`e`b`b`b`e`b`b`b`b`d`g`g`f`````````````````````.`#`.```.```````.`#",
"`L`L`L`L`M`M`N`N`N`M`L`M`L`L`L`O`O`F`F`F`D`D`C`d`e`e`b`b`b`b`e`b`b`b`e`b`b`b`b`b`d`g`g`f`````````````````.`.`#`#`#`.```.`````.`c",
"`L`L`M`M`N`N`N`N`N`N`N`N`N`N`H`H`O`F`P`P`C`C`C`E`d`d`e`e`e`e`e`e`b`b`e`b`b`b`b`b`e`f`g`#`#`#`.`.`````.`.`#`#`#`#`#`#`#`#`#`#`c`c",
"`L`L`L`L`L`L`L`L`L`M`M`N`N`M`L`O`O`F`F`F`F`F`F`F`G`Q`d`d`d`d`d`e`e`e`e`e`b`b`b`e`e`f`f`#`#`.```````````````````````.`.`#`#`.`#`#",
"`L`L`L`L`L`L`L`L`L`L`L`M`N`L`L`L`O`F`F`F`F`F`F`F`G`````.`#`````d`d`d`d`e`e`e`e`e`e`g`g`h`h`````````````````````````````.`#```#`#",
"`K`K`K`K`K`K`K`L`L`L`L`L`M`L`L`L`F`F`F`F`F`F`F`F`J```````.`````````````d`d`d`d`d`d`f`f`f`f`h`````````````````````````````.```.`#",
"`K`K`K`K`K`M`L`L`L`L`R`M`M`L`L`L`F`F`F`F`F`D`F`F`F`````.`.`````````````````.```````````.`.`````````````````.```````````.`.```#`.",
"`K`K`K`K`H`K`M`L`L`M`R`M`S`R`L`L`F`F`F`F`P`F`D`F`F`Q```.`#```````````````.```.`````.```.`#```````````````.```.`````.```.`#```.`#",
"`K`H`H`H`H`T`T`M`M`N`M`S`S`M`L`L`F`x`P`P`D`D`D`D`D`U`.`#`#`.```````.`.`.`.`.`.`.`.`#`.`#`#`.```````.`.`.`.`.`.`.`.`#`.`#`#`.`#`#",
"`H`H`H`I`H`H`V`N`N`N`W`S`S`S`N`I`H`v`P`X`P`D`E`Y`Y`U`#`#`#`#`#`#`.`.`.`#`.`.`#`#`#`#`#`#`#`#`#`#`.`.`.`#`.`.`#`#`#`#`#`#`#`#`#`c",
"`K`K`Z`Z`H`H`V`N`N`M`M`M`R`M`L`L`K`F`F`F`D`D`E`E`Y`.`.`.```.`````````````.`.`#`#`#`.`.`.```.`````````````.`.`#`#`#`.`.`.```.`.`#",
"`K`K`K`H`K`K`H`V`M`L`M`L`M`R`R`R`0`F`F`P`K`F`D`E`D`J`.```.`````````````.`````.`#`.```.```.`````````````.`````.`#`.```.```.```#`#"
};
