/* XPM */
static char *cat_left_0_xpm[] = {
/* width height num_colors chars_per_pixel */
"    64    64      256            2",
/* colors */
"`` c #742a81",
"`. c #5b276d",
"`# c #42195d",
"`a c #62784a",
"`b c #4e5332",
"`c c #2a2640",
"`d c #171a0f",
"`e c #243117",
"`f c #9f8965",
"`g c #e6daad",
"`h c #fdffd6",
"`i c #796e67",
"`j c #3d3734",
"`k c #302d21",
"`l c #364922",
"`m c #84ae56",
"`n c #6b3840",
"`o c #3a1f1d",
"`p c #b34d5c",
"`q c #8d4953",
"`r c #bd7247",
"`s c #cd9757",
"`t c #80592d",
"`u c #ab7b44",
"`v c #5d286f",
"`w c #461b60",
"`x c #5d276f",
"`y c #461a60",
"`z c #451a5f",
"`A c #752a82",
"`B c #752a81",
"`C c #5e286f",
"`D c #471b60",
"`E c #752b81",
"`F c #752b82",
"`G c #762b82",
"`H c #5f2870",
"`I c #481b61",
"`J c #762a82",
"`K c #5d276e",
"`L c #762b83",
"`M c #5c276e",
"`N c #491b62",
"`O c #5c276d",
"`P c #5e2870",
"`Q c #43195d",
"`R c #471b61",
"`S c #481b62",
"`T c #451a5e",
"`U c #431a5e",
"`V c #43195e",
"`W c #752b83",
"`X c #742a82",
"`Y c #000000",
"`Z c #000000",
"`0 c #000000",
"`1 c #000000",
"`2 c #000000",
"`3 c #000000",
"`4 c #000000",
"`5 c #000000",
"`6 c #000000",
"`7 c #000000",
"`8 c #000000",
".` c #000000",
".. c #000000",
".# c #000000",
".a c #000000",
".b c #000000",
".c c #000000",
".d c #000000",
".e c #000000",
".f c #000000",
".g c #000000",
".h c #000000",
".i c #000000",
".j c #000000",
".k c #000000",
".l c #000000",
".m c #000000",
".n c #000000",
".o c #000000",
".p c #000000",
".q c #000000",
".r c #000000",
".s c #000000",
".t c #000000",
".u c #000000",
".v c #000000",
".w c #000000",
".x c #000000",
".y c #000000",
".z c #000000",
".A c #000000",
".B c #000000",
".C c #000000",
".D c #000000",
".E c #000000",
".F c #000000",
".G c #000000",
".H c #000000",
".I c #000000",
".J c #000000",
".K c #000000",
".L c #000000",
".M c #000000",
".N c #000000",
".O c #000000",
".P c #000000",
".Q c #000000",
".R c #000000",
".S c #000000",
".T c #000000",
".U c #000000",
".V c #000000",
".W c #000000",
".X c #000000",
".Y c #000000",
".Z c #000000",
".0 c #000000",
".1 c #000000",
".2 c #000000",
".3 c #000000",
".4 c #000000",
".5 c #000000",
".6 c #000000",
".7 c #000000",
".8 c #000000",
"#` c #000000",
"#. c #000000",
"## c #000000",
"#a c #000000",
"#b c #000000",
"#c c #000000",
"#d c #000000",
"#e c #000000",
"#f c #000000",
"#g c #000000",
"#h c #000000",
"#i c #000000",
"#j c #000000",
"#k c #000000",
"#l c #000000",
"#m c #000000",
"#n c #000000",
"#o c #000000",
"#p c #000000",
"#q c #000000",
"#r c #000000",
"#s c #000000",
"#t c #000000",
"#u c #000000",
"#v c #000000",
"#w c #000000",
"#x c #000000",
"#y c #000000",
"#z c #000000",
"#A c #000000",
"#B c #000000",
"#C c #000000",
"#D c #000000",
"#E c #000000",
"#F c #000000",
"#G c #000000",
"#H c #000000",
"#I c #000000",
"#J c #000000",
"#K c #000000",
"#L c #000000",
"#M c #000000",
"#N c #000000",
"#O c #000000",
"#P c #000000",
"#Q c #000000",
"#R c #000000",
"#S c #000000",
"#T c #000000",
"#U c #000000",
"#V c #000000",
"#W c #000000",
"#X c #000000",
"#Y c #000000",
"#Z c #000000",
"#0 c #000000",
"#1 c #000000",
"#2 c #000000",
"#3 c #000000",
"#4 c #000000",
"#5 c #000000",
"#6 c #000000",
"#7 c #000000",
"#8 c #000000",
"a` c #000000",
"a. c #000000",
"a# c #000000",
"aa c #000000",
"ab c #000000",
"ac c #000000",
"ad c #000000",
"ae c #000000",
"af c #000000",
"ag c #000000",
"ah c #000000",
"ai c #000000",
"aj c #000000",
"ak c #000000",
"al c #000000",
"am c #000000",
"an c #000000",
"ao c #000000",
"ap c #000000",
"aq c #000000",
"ar c #000000",
"as c #000000",
"at c #000000",
"au c #000000",
"av c #000000",
"aw c #000000",
"ax c #000000",
"ay c #000000",
"az c #000000",
"aA c #000000",
"aB c #000000",
"aC c #000000",
"aD c #000000",
"aE c #000000",
"aF c #000000",
"aG c #000000",
"aH c #000000",
"aI c #000000",
"aJ c #000000",
"aK c #000000",
"aL c #000000",
"aM c #000000",
"aN c #000000",
"aO c #000000",
"aP c #000000",
"aQ c #000000",
"aR c #000000",
"aS c #000000",
"aT c #000000",
"aU c #000000",
"aV c #000000",
"aW c #000000",
"aX c #000000",
"aY c #000000",
"aZ c #000000",
"a0 c #000000",
"a1 c #000000",
"a2 c #000000",
"a3 c #000000",
"a4 c #000000",
"a5 c #000000",
"a6 c #000000",
"a7 c #000000",
"a8 c #000000",
/* pixels */
"```````````.```#`.`.```````````````````````.```#`.`.```````````````````````.```#`.`.```````````````````````.```#`.`.`````````#`#",
"```````````````.```````````````````````````````.```````````````````````````````.```````````````````````````````.`````````````.`#",
"`````````````.`.`````````````````````````````.`.`````````````````````````````.`.`````````````````````````````.`.`````````````#`#",
"`````````````.`#`````````````````````````````.`#`````````````````````````````.`#`````````````````````````````.`#`````````````.`#",
"`````````````.`#`.```.```````````````````````.`#`.```.```````````````````````.`#`.```.```````````````````````.`#`.```.```````.`#",
"`````````.`.`#`#`#`.```.`````````````````.`.`#`#`#`.```.```````````a`b`a`a`a`a`a`#`.```.`````````````````.`.`#`#`#`.```.`````.`c",
"`````.`.`#`#`#`#`#`#`#`#`#`#`.`.`````.`.`#`#`#`#`#`#`#`#`#`#`.`a`b`a`a`b`b`b`b`d`#`#`#`#`#`#`.`.`````.`.`#`#`#`#`#`#`#`#`#`#`c`c",
"```````````````````.`.`#`#`.```````````````````````.`.`#`#`a`b`a`a`b`b`b`b`b`b`d```.`.`#`#`.```````````````````````.`.`#`#`.`#`#",
"```````````````````````.`#`````````````````````````````a`b`a`a`b`b`b`b`b`b`b`e`d```````.`#`````````````````````````````.`#```#`#",
"`````````````````````````.`````````````````````````a`b`a`a`b`b`b`b`b`b`b`b`e`d```````````.```````````````````````````````.```.`#",
"```````````.```````````.`.`````````````````a`a`a`a`a`a`b`b`b`b`b`b`b`b`b`e`e`d`````````.`.`````````````````.```````````.`.```#`.",
"`````````.```.`````.```.`#`````````````a`a`a`a`a`a`a`e`e`b`b`b`b`b`b`e`e`e`d`.`````.```.`#```````````````.```.`````.```.`#```.`#",
"```.`.`.`.`.`.`.`.`#`.`#`#`.```````a`a`a`b`b`b`b`b`b`b`b`e`b`b`b`e`e`e`e`e`d`.`.`.`#`.`#`#`.```````.`.`.`.`.`.`.`.`#`.`#`#`.`#`#",
"`.`.`.`#`.`.`#`#`#`#`#`#`#`#`#`#`a`a`b`b`b`b`b`b`b`b`b`b`b`b`e`e`e`e`e`e`d`.`#`#`#`#`#`#`#`#`#`#`.`.`.`#`.`.`#`#`#`#`#`#`#`#`#`c",
"`````````.`.`#`#`#`.`.`.```.```a`a`b`b`b`b`b`b`b`b`b`b`b`b`b`b`e`e`e`e`e`d`.`#`#`#`.`.`.```.`````````````.`.`#`#`#`.`.`.```.`.`#",
"```````.`````.`#`.```.```.`````a`a`a`b`b`b`b`b`b`b`b`b`b`b`b`b`b`e`e`e`e`d```.`#`.```.```.`````````````.`````.`#`.```.```.```#`#",
"```````````.```#`.`.`````````````f`f`a`a`b`b`b`b`b`b`b`b`b`b`b`b`b`b`e`e`d`.```#`.`.```````````````````````.```#`.`.`````````#`#",
"```````````````.```````````````f`g`g`f`f`a`a`b`b`b`b`b`b`b`b`b`b`b`b`b`d```````.```````````````````````````````.`````````````.`#",
"`````````````.`.```````````````f`h`g`g`i`i`j`a`b`b`b`b`b`b`b`b`b`b`b`b`b`d```.`.`````````````````````````````.`.`````````````#`#",
"`````````````.`#```````````````g`k`k`f`g`i`i`a`b`b`b`b`b`b`b`b`b`b`b`b`b`d```.`#`````````````````````````````.`#`````````````.`#",
"`````````````.`#`.```.`````````g`g`g`g`g`i`i`j`a`b`b`b`b`b`b`b`b`b`b`b`b`e`d`.`#`.```.```````````````````````.`#`.```.```````.`#",
"`````````.`.`#`#`#`.```.```````g`g`f`h`i`i`i`i`a`b`b`b`b`b`b`b`b`b`b`b`b`e`d`#`#`#`.```.`````````````````.`.`#`#`#`.```.`````.`c",
"`````.`.`#`#`#`#`#`#`#`#`#`#`.`g`g`l`m`k`k`g`g`a`e`b`b`b`b`b`b`b`b`b`b`b`b`e`d`#`#`#`#`#`#`#`.`.`````.`.`#`#`#`#`#`#`#`#`#`#`c`c",
"```````````````````.`.`#`#`.```g`g`l`m`m`h`g`g`f`a`e`b`b`b`b`b`b`b`b`b`b`b`b`b`d```.`.`#`#`.```````````````````````.`.`#`#`.`#`#",
"```````````````````````.`#```g`g`g`l`m`h`h`h`g`g`f`a`e`b`b`b`b`b`b`b`b`b`b`b`e`e`d`````.`#`````````````````````````````.`#```#`#",
"`````````````````````````.`k`k`h`g`g`h`h`g`g`g`g`f`f`a`e`b`b`b`b`b`b`b`b`b`e`e`e`e`d`````.```````````````````````````````.```.`#",
"```````````.```````````.`.`f`g`g`g`g`g`g`g`g`g`f`f`d`e`b`b`b`b`b`b`b`b`b`e`e`e`e`d`````.`.`````````````````.```````````.`.```#`.",
"`````````.```.`````.```.`#`f`g`g`g`g`g`g`g`g`f`f`d`e`b`b`b`b`b`b`b`b`e`e`e`e`e`d```.```.`#```````````````.```.`````.```.`#```.`#",
"```.`.`.`.`.`.`.`.`#`.`#`#`.`f`g`g`g`g`g`g`f`f`d`e`b`b`b`b`b`b`b`b`e`e`e`e`d`d`.`.`#`.`#`#`.```````.`.`.`.`.`.`.`.`#`.`#`#`.`#`#",
"`.`.`.`#`.`.`#`#`#`#`#`#`#`#`#`f`g`g`g`g`f`f`d`e`b`b`b`b`b`b`e`e`e`e`e`d`d`.`#`#`#`#`#`#`#`#`#`#`.`.`.`#`.`.`#`#`#`#`#`#`#`#`#`c",
"`````````.`.`#`#`#`.`.`.```.```````f`f`f`d`d`e`e`e`e`e`e`e`e`e`e`e`d`d```.`.`#`#`#`.`.`.```.`````````````.`.`#`#`#`.`.`.```.`.`#",
"```````.`````.`#`.```.```.`````````````d`d`d`d`d`d`d`d`d`d`d`d`d`d`````.`````.`#`.```.```.`````````````.`````.`#`.```.```.```#`#",
"```````````.```#`.`.```````````````````n`n`o`d`e`e`e`e`e`e`d```````````````.```#`.`.```````````````````````.```#`.`.`````````#`#",
"```````````````.`````````````````````p`q`n`o`d`e`e`e`e`e`e`e`d`````````````````.```````````````````````````````.`````````````.`#",
"`````````````.`.```````````````````p`q`n`o`k`d`e`e`e`e`e`e`e`d```````````````.`.`````````````````````````````.`.`````````````#`#",
"`````````````.`#```````````````````q`n`o`k`k`d`e`e`b`e`e`e`e`e`d`````````````.`#`````````````````````````````.`#`````````````.`#",
"`````````````.`#`.```.`````````````o`o`k`k`k`d`e`b`b`e`b`e`e`e`d`````````````.`#`.```.```````````````````````.`#`.```.```````.`#",
"`````````.`.`#`#`#`.```.`````````````f`g`r`k`d`e`b`b`e`b`b`b`e`e`d```````.`.`#`#`#`.```.`````````````````.`.`#`#`#`.```.`````.`c",
"`````.`.`#`#`#`#`#`#`#`#`#`#`.`.`````f`s`r`t`d`e`b`b`b`e`b`b`e`b`d```.`.`#`#`#`#`#`#`#`#`#`#`.`.`````.`.`#`#`#`#`#`#`#`#`#`#`c`c",
"```````````````````.`.`#`#`.`````````f`h`u`r`k`d`b`b`b`e`b`b`b`b`b`d```````````````.`.`#`#`.```````````````````````.`.`#`#`.`#`#",
"```````````````````````.`#```````````h`h`s`s`k`d`b`b`b`b`b`b`b`b`b`d```````````````````.`#`````````````````````````````.`#```#`#",
"`````````````````````````.`````````h`h`g`g`r`k`d`b`b`b`e`b`b`b`b`b`b`d```````````````````.```````````````````````````````.```.`#",
"```````````.```````````.`.`````````h`g`g`f`k`k`d`b`b`b`b`b`b`b`b`b`b`d`````.```````````.`.`````````````````.```````````.`.```#`.",
"`````````.```.`````.```.`#```````h`h`g`f`f`k`k`d`b`b`b`b`b`b`b`b`b`b`b`d`.```.`````.```.`#```````````````.```.`````.```.`#```.`#",
"```.`.`.`.`.`.`.`.`#`.`#`#`.`````f`g`g`f`k`g`k`d`b`b`b`b`b`b`b`b`b`b`b`b`d`.`.`.`.`#`.`#`#`.```````.`.`.`.`.`.`.`.`#`.`#`#`.`#`#",
"`v`v`v`w`v`x`w`w`w`w`y`z`z`z`z`z`f`g`f`k`g`g`f`d`b`b`b`b`b`b`b`b`b`b`b`b`b`d`#`#`#`#`#`#`#`#`#`#`.`.`.`#`.`.`#`#`#`#`#`#`#`#`#`c",
"`A`````B`C`C`D`w`w`v`v`v`A`v`E`F`k`g`k`f`g`g`f`d`b`b`b`b`b`b`b`b`b`b`b`b`b`b`d`#`#`.`.`.```h`h`h`h```````.`.`#`#`#`.`.`.```.`.`#",
"`A`A`A`C`A`A`C`D`C`F`C`F`C`F`F`F`F`k`k`f`g`g`f`d`b`b`b`b`b`b`b`b`b`b`b`b`b`b`b`d`.```.```h`g`g`g`g`h```.`````.`#`.```.```.```#`#",
"`F`F`F`F`F`C`F`D`C`C`F`F`F`F`F`F`F`F`A`f`g`g`f`d`b`b`b`b`b`b`b`b`b`b`b`e`b`b`b`b`d`.```h`g`g`g`g`g`g```````.```#`.`.`````````#`#",
"`F`F`F`F`F`F`F`C`F`G`F`G`G`G`G`G`G`F`A`f`g`g`f`d`b`b`b`e`b`b`e`b`b`b`b`b`b`b`b`b`b`d```g`g`g`g`g`g`````````````.`````````````.`#",
"`F`G`G`G`G`G`H`H`G`G`G`G`G`G`G`G`G`F`A`f`g`g`d`b`b`b`b`b`b`b`b`b`b`b`b`b`e`b`b`b`b`d`g`f`f`f`````````````````.`.`````````````#`#",
"`G`G`G`G`G`G`H`I`G`G`G`G`G`G`G`J`J`J`A`f`i`g`d`b`b`b`b`e`b`b`b`e`b`b`b`b`b`e`b`b`e`d`k`k`k```````````````````.`#`````````````.`#",
"`G`G`G`G`G`G`H`I`H`G`H`G`G`G`G`J`J`A`A`f`i`g`d`b`b`b`b`e`b`b`b`e`b`b`b`b`b`b`e`e`d`k`k`k`````````````````````.`#`.```.```````.`#",
"`G`G`G`G`H`H`I`I`I`H`G`H`G`G`G`J`J`A`A`j`i`g`d`b`b`b`b`b`e`b`b`b`e`b`b`b`b`e`e`d`#`.```.`````````````````.`.`#`#`#`.```.`````.`c",
"`G`G`H`H`I`I`I`I`I`I`I`I`I`I`C`C`J`A`K`K`i`j`e`b`b`b`b`b`e`b`b`e`e`e`e`e`e`d`d`#`#`#`#`#`#`#`.`.`````.`.`#`#`#`#`#`#`#`#`#`#`c`c",
"`G`G`G`G`G`G`G`G`G`H`H`I`I`H`G`J`J`A`A`A`j`j`e`e`b`b`b`e`e`e`e`e`d`d`d`d`d`````````.`.`#`#`.```````````````````````.`.`#`#`.`#`#",
"`G`G`G`G`G`G`G`G`G`G`G`H`I`G`G`G`J`A`h`h`g`g`e`e`e`e`e`e`d`d`d`d```````````````````````.`#`````````````````````````````.`#```#`#",
"`F`F`F`F`F`F`F`G`G`G`G`G`H`G`G`G`A`h`f`f`f`f`d`d`d`d`d`d`.```````````````````````````````.```````````````````````````````.```.`#",
"`F`F`F`F`F`H`G`G`G`G`L`H`H`G`G`G`A`A`A`A`A`M`A`A`A`````.`.`````````````````.```````````.`.`````````````````.```````````.`.```#`.",
"`F`F`F`F`C`F`H`G`G`H`L`H`N`L`G`G`A`A`A`A`K`A`M`A`A`O```.`#```````````````.```.`````.```.`#```````````````.```.`````.```.`#```.`#",
"`F`C`C`C`C`P`P`H`H`I`H`N`N`H`G`G`A`x`K`K`M`M`M`M`M`Q`.`#`#`.```````.`.`.`.`.`.`.`.`#`.`#`#`.```````.`.`.`.`.`.`.`.`#`.`#`#`.`#`#",
"`C`C`C`D`C`C`R`I`I`I`S`N`N`N`I`D`C`v`K`T`K`M`U`V`V`Q`#`#`#`#`#`#`.`.`.`#`.`.`#`#`#`#`#`#`#`#`#`#`.`.`.`#`.`.`#`#`#`#`#`#`#`#`#`c",
"`F`F`E`E`C`C`R`I`I`H`H`H`L`H`G`G`F`A`A`A`M`M`U`U`V`.`.`.```.`````````````.`.`#`#`#`.`.`.```.`````````````.`.`#`#`#`.`.`.```.`.`#",
"`F`F`F`C`F`F`C`R`H`G`H`G`H`L`L`L`W`A`A`K`F`A`M`U`M`X`.```.`````````````.`````.`#`.```.```.`````````````.`````.`#`.```.```.```#`#"
};
