/* XPM */
static char *enemy_0_xpm[] = {
/* width height num_colors chars_per_pixel */
"    64    64      256            2",
/* colors */
"`` c #742a81",
"`. c #5b276d",
"`# c #42195d",
"`a c #2a2640",
"`b c #da94cc",
"`c c #a76d9c",
"`d c #f9b6e8",
"`e c #5d286f",
"`f c #461b60",
"`g c #5d276f",
"`h c #461a60",
"`i c #451a5f",
"`j c #5c276e",
"`k c #431a5e",
"`l c #43195e",
"`m c #752a82",
"`n c #752a81",
"`o c #5e286f",
"`p c #471b60",
"`q c #752b82",
"`r c #742a82",
"`s c #762b82",
"`t c #5f2870",
"`u c #481b61",
"`v c #762a82",
"`w c #441a5e",
"`x c #5c276d",
"`y c #5d276e",
"`z c #431a5d",
"`A c #762b83",
"`B c #491b62",
"`C c #5e2870",
"`D c #43195d",
"`E c #471b61",
"`F c #481b62",
"`G c #451a5e",
"`H c #752b81",
"`I c #752b83",
"`J c #000000",
"`K c #000000",
"`L c #000000",
"`M c #000000",
"`N c #000000",
"`O c #000000",
"`P c #000000",
"`Q c #000000",
"`R c #000000",
"`S c #000000",
"`T c #000000",
"`U c #000000",
"`V c #000000",
"`W c #000000",
"`X c #000000",
"`Y c #000000",
"`Z c #000000",
"`0 c #000000",
"`1 c #000000",
"`2 c #000000",
"`3 c #000000",
"`4 c #000000",
"`5 c #000000",
"`6 c #000000",
"`7 c #000000",
"`8 c #000000",
".` c #000000",
".. c #000000",
".# c #000000",
".a c #000000",
".b c #000000",
".c c #000000",
".d c #000000",
".e c #000000",
".f c #000000",
".g c #000000",
".h c #000000",
".i c #000000",
".j c #000000",
".k c #000000",
".l c #000000",
".m c #000000",
".n c #000000",
".o c #000000",
".p c #000000",
".q c #000000",
".r c #000000",
".s c #000000",
".t c #000000",
".u c #000000",
".v c #000000",
".w c #000000",
".x c #000000",
".y c #000000",
".z c #000000",
".A c #000000",
".B c #000000",
".C c #000000",
".D c #000000",
".E c #000000",
".F c #000000",
".G c #000000",
".H c #000000",
".I c #000000",
".J c #000000",
".K c #000000",
".L c #000000",
".M c #000000",
".N c #000000",
".O c #000000",
".P c #000000",
".Q c #000000",
".R c #000000",
".S c #000000",
".T c #000000",
".U c #000000",
".V c #000000",
".W c #000000",
".X c #000000",
".Y c #000000",
".Z c #000000",
".0 c #000000",
".1 c #000000",
".2 c #000000",
".3 c #000000",
".4 c #000000",
".5 c #000000",
".6 c #000000",
".7 c #000000",
".8 c #000000",
"#` c #000000",
"#. c #000000",
"## c #000000",
"#a c #000000",
"#b c #000000",
"#c c #000000",
"#d c #000000",
"#e c #000000",
"#f c #000000",
"#g c #000000",
"#h c #000000",
"#i c #000000",
"#j c #000000",
"#k c #000000",
"#l c #000000",
"#m c #000000",
"#n c #000000",
"#o c #000000",
"#p c #000000",
"#q c #000000",
"#r c #000000",
"#s c #000000",
"#t c #000000",
"#u c #000000",
"#v c #000000",
"#w c #000000",
"#x c #000000",
"#y c #000000",
"#z c #000000",
"#A c #000000",
"#B c #000000",
"#C c #000000",
"#D c #000000",
"#E c #000000",
"#F c #000000",
"#G c #000000",
"#H c #000000",
"#I c #000000",
"#J c #000000",
"#K c #000000",
"#L c #000000",
"#M c #000000",
"#N c #000000",
"#O c #000000",
"#P c #000000",
"#Q c #000000",
"#R c #000000",
"#S c #000000",
"#T c #000000",
"#U c #000000",
"#V c #000000",
"#W c #000000",
"#X c #000000",
"#Y c #000000",
"#Z c #000000",
"#0 c #000000",
"#1 c #000000",
"#2 c #000000",
"#3 c #000000",
"#4 c #000000",
"#5 c #000000",
"#6 c #000000",
"#7 c #000000",
"#8 c #000000",
"a` c #000000",
"a. c #000000",
"a# c #000000",
"aa c #000000",
"ab c #000000",
"ac c #000000",
"ad c #000000",
"ae c #000000",
"af c #000000",
"ag c #000000",
"ah c #000000",
"ai c #000000",
"aj c #000000",
"ak c #000000",
"al c #000000",
"am c #000000",
"an c #000000",
"ao c #000000",
"ap c #000000",
"aq c #000000",
"ar c #000000",
"as c #000000",
"at c #000000",
"au c #000000",
"av c #000000",
"aw c #000000",
"ax c #000000",
"ay c #000000",
"az c #000000",
"aA c #000000",
"aB c #000000",
"aC c #000000",
"aD c #000000",
"aE c #000000",
"aF c #000000",
"aG c #000000",
"aH c #000000",
"aI c #000000",
"aJ c #000000",
"aK c #000000",
"aL c #000000",
"aM c #000000",
"aN c #000000",
"aO c #000000",
"aP c #000000",
"aQ c #000000",
"aR c #000000",
"aS c #000000",
"aT c #000000",
"aU c #000000",
"aV c #000000",
"aW c #000000",
"aX c #000000",
"aY c #000000",
"aZ c #000000",
"a0 c #000000",
"a1 c #000000",
"a2 c #000000",
"a3 c #000000",
"a4 c #000000",
"a5 c #000000",
"a6 c #000000",
"a7 c #000000",
"a8 c #000000",
/* pixels */
"```````````.```#`.`.```````````````````````.```#`.`.```````````````````````.```#`.`.```````````````````````.```#`.`.`````````#`#",
"```````````````.```````````````````````````````.```````````````````````````````.```````````````````````````````.`````````````.`#",
"`````````````.`.`````````````````````````````.`.`````````````````````````````.`.`````````````````````````````.`.`````````````#`#",
"`````````````.`#`````````````````````````````.`#`````````````````````````````.`#`````````````````````````````.`#`````````````.`#",
"`````````````.`#`.```.```````````````````````.`#`.```.```````````````````````.`#`.```.```````````````````````.`#`.```.```````.`#",
"`````````.`.`#`#`#`.```.`````````````````.`.`#`#`#`.```.`````````````````.`.`#`#`#`.```.`````````````````.`.`#`#`#`.```.`````.`a",
"`````.`.`#`#`#`#`#`#`#`#`#`#`.`.`````.`.`#`#`#`#`#`#`#`#`#`#`.`.`````.`.`#`#`#`#`#`#`#`#`#`#`.`.`````.`.`#`#`#`#`#`#`#`#`#`#`a`a",
"```````````````````.`.`#`#`.```````````````````````.`.`#`#`.```````````````````````.`.`#`#`.```````````````````````.`.`#`#`.`#`#",
"```````````````````````.`#`````````````````````````````.`#`````````````````````````````.`#`````````````````````````````.`#```#`#",
"`````````````````````````.```````````````````````````````.```````````````````````````````.```````````````````````````````.```.`#",
"```````````.```````````.`.`````````````````.```````````.`.`````````````````.```````````.`.`````````````````.```````````.`.```#`.",
"`````````.```.`````.```.`#```````````````.```.`````.```.`#```````````````.```.`````.```.`#```````````````.```.`````.```.`#```.`#",
"```.`.`.`.`.`.`.`.`#`.`#`#`.```````.`.`.`.`.`.`.`.`#`.`#`#`.```````.`.`.`.`.`.`.`.`#`.`#`#`.```````.`.`.`.`.`.`.`.`#`.`#`#`.`#`#",
"`.`.`.`#`.`.`#`#`#`#`#`#`#`#`#`#`.`.`.`#`.`.`#`#`#`#`#`#`#`#`#`#`.`.`.`#`.`.`#`#`#`#`#`#`#`#`#`#`.`.`.`#`.`.`#`#`#`#`#`#`#`#`#`a",
"`````````.`.`#`#`#`.`.`.```.`````````````.`.`#`#`#`.`.`.```.`````````````.`.`#`#`#`.`.`.```.`````````````.`.`#`#`#`.`.`.```.`.`#",
"```````.`````.`#`.```.```.`````````````.`````.`#`.```.```.`````````.`.`.`.`.`#`#`b`b`b`#`#`b`b`b`#`#```.`````.`#`.```.```.```#`#",
"```````````.```#`.`.```````````````````````.```#`.`.```````````````.`.`.`.`.`#`#`b`b`b`#`#`b`b`b`#`#```````.```#`.`.`````````#`#",
"```````````````.```````````````````````````c`c`c`b`b`d`d`d`d`d`d`d`b`b`b`c`c`#`#`b`b`b`c`c`d`d`d`#`#```````````.`````````````.`#",
"`````````````.`.```````````````````````````c`c`c`b`b`d`d`d`d`d`d`d`b`b`b`c`c`#`#`b`b`b`c`c`d`d`d`#`#`````````.`.`````````````#`#",
"`````````````.`#```````````````````````````c`c`c`b`b`d`d`d`d`d`d`d`b`b`b`c`c`#`#`b`b`b`c`c`d`d`d`#`#`````````.`#`````````````.`#",
"`````````````.`#`.```.```````````#`#`#`c`c`b`b`b`d`d`d`d`d`d`d`b`b`b`b`b`b`b`c`c`#`#`#`c`c`b`b`b`c`c`````````.`#`.```.```````.`#",
"`````````.`.`#`#`#`.```.`````````#`#`#`c`c`b`b`b`d`d`d`d`d`d`d`b`b`b`b`b`b`b`c`c`#`#`#`c`c`b`b`b`c`c`````.`.`#`#`#`.```.`````.`a",
"`````.`.`#`#`#`#`#`#`#`#`#`#`.`.`#`#`#`b`b`b`b`b`b`b`b`b`b`b`b`b`b`b`b`b`b`b`c`c`#`#`#`#`#`c`c`c`#`#`.`.`#`#`#`#`#`#`#`#`#`#`a`a",
"```````````````````.`.`#`#`.`````#`#`#`b`b`b`b`b`b`b`b`b`b`b`b`b`b`b`b`b`b`b`c`c`#`#`#`#`#`c`c`c`#`#```````````````.`.`#`#`.`#`#",
"```````````````````````.`#```````#`#`#`b`b`b`b`b`b`b`b`b`b`b`b`b`b`b`b`b`b`b`c`c`#`#`#`#`#`c`c`c`#`#```````````````````.`#```#`#",
"`````````````````````````.```````#`#`#`b`b`#`#`#`#`#`b`b`#`#`#`#`#`b`b`b`b`b`c`c`#`#`#`d`d`c`c`c`#`#`````````````````````.```.`#",
"```````````.```````````.`.```````#`#`#`b`b`#`#`#`#`#`b`b`#`#`#`#`#`b`b`b`b`b`c`c`#`#`#`d`d`c`c`c`#`#```````.```````````.`.```#`.",
"`````````.```.`````.```.`#```````#`#`#`c`c`.`.`.`.`.`b`b`.`.`.`.`.`b`b`b`c`c`c`c`#`#`#`b`b`c`c`c`#`#`````.```.`````.```.`#```.`#",
"```.`.`.`.`.`.`.`.`#`.`#`#`.`````#`#`#`c`c`.`.`.`.`.`b`b`.`.`.`.`.`b`b`b`c`c`c`c`#`#`#`b`b`c`c`c`#`#`.`.`.`.`.`.`.`#`.`#`#`.`#`#",
"`.`.`.`#`.`.`#`#`#`#`#`#`#`#`#`#`#`#`#`c`c`.`.`.`.`.`b`b`.`.`.`.`.`b`b`b`c`c`c`c`#`#`#`b`b`c`c`c`#`#`.`#`.`.`#`#`#`#`#`#`#`#`#`a",
"`````````.`.`#`#`#`.`.`.```.`````#`#`#`c`c`b`b`b`b`b`c`c`b`b`b`b`b`b`b`b`c`c`#`#`c`c`c`c`c`#`#`#`.`.`````.`.`#`#`#`.`.`.```.`.`#",
"```````.`````.`#`.```.```.```````#`#`#`c`c`b`b`b`b`b`c`c`b`b`b`b`b`b`b`b`c`c`#`#`c`c`c`c`c`#`#`#`.`.```.`````.`#`.```.```.```#`#",
"```````````.```#`.`.```````````````````#`#`c`c`c`b`b`b`b`d`d`d`b`b`b`b`b`c`c`#`#`#`#`#`#`#`.`.`.```````````.```#`.`.`````````#`#",
"```````````````.```````````````````````#`#`c`c`c`b`b`b`b`d`d`d`b`b`b`b`b`c`c`#`#`#`#`#`#`#`.`.`.```````````````.`````````````.`#",
"`````````````.`.`````````````````.`.`.`.`.`#`#`#`d`d`#`#`d`d`d`#`#`b`b`b`#`#`#`#`c`c`c`#`#`.`.`.`````````````.`.`````````````#`#",
"`````````````.`#`````````````````.`.`.`.`.`#`#`#`d`d`#`#`d`d`d`#`#`b`b`b`#`#`#`#`c`c`c`#`#`.`.`.`````````````.`#`````````````.`#",
"`````````````.`#`.```.```````````.`.`.`.`.`#`#`#`d`d`#`#`d`d`d`#`#`b`b`b`#`#`#`#`c`c`c`#`#`.`.`.`````````````.`#`.```.```````.`#",
"`````````.`.`#`#`#`.```.`````.`.`.`.`.`b`b`c`c`c`#`#`#`#`#`#`#`#`#`#`#`#`#`#`c`c`b`b`b`#`#`.`.`.`````````.`.`#`#`#`.```.`````.`a",
"`````.`.`#`#`#`#`#`#`#`#`#`#`.`.`.`.`.`b`b`c`c`c`#`#`#`#`#`#`#`#`#`#`#`#`#`#`c`c`b`b`b`#`#`.`.`.`````.`.`#`#`#`#`#`#`#`#`#`#`a`a",
"```````````````````.`.`#`#`.`#`#`d`d`d`c`c`#`#`#`#`#`c`c`b`b`b`b`b`#`#`#`#`#`b`b`#`#`#`c`c`.`.`.```````````````````.`.`#`#`.`#`#",
"```````````````````````.`#```#`#`d`d`d`c`c`#`#`#`#`#`c`c`b`b`b`b`b`#`#`#`#`#`b`b`#`#`#`c`c`.`.`.```````````````````````.`#```#`#",
"`````````````````````````.```#`#`d`d`d`c`c`#`#`#`#`#`c`c`b`b`b`b`b`#`#`#`#`#`b`b`#`#`#`c`c`.`.`.`````````````````````````.```.`#",
"```````````.```````````.`.```d`d`c`c`c`#`#`#`#`#`#`#`#`#`c`c`c`b`b`d`d`d`#`#`````#`#`#`b`b`.`.`.```````````.```````````.`.```#`.",
"`````````.```.`````.```.`#```d`d`c`c`c`#`#`#`#`#`#`#`#`#`c`c`c`b`b`d`d`d`#`#`.```#`#`#`b`b`.`.`.`````````.```.`````.```.`#```.`#",
"```.`.`.`.`.`.`.`.`#`.`#`#`.`b`b`#`#`#`#`#`.`.`.`.`#`c`c`#`#`#`#`#`#`#`#`#`#`#`#`b`b`b`#`#`.`.`.```.`.`.`.`.`.`.`.`#`.`#`#`.`#`#",
"`e`e`e`f`e`g`f`f`f`f`h`i`i`i`b`b`#`#`#`#`#`j`k`k`k`l`c`c`#`#`#`#`#`#`#`#`#`#`#`#`b`b`b`#`#`.`.`.`.`.`.`#`.`.`#`#`#`#`#`#`#`#`#`a",
"`m`````n`o`o`p`f`f`e`e`e`m`e`b`b`#`#`#`#`#`j`k`k`k`.`c`c`#`#`#`#`#`#`#`#`#`#`#`#`b`b`b`#`#`.`.`.`````````.`.`#`#`#`.`.`.```.`.`#",
"`m`m`m`o`m`m`o`p`o`q`o`q`o`q`q`q`#`#`#`j`r`r`j`k`j```.```c`c`c`c`c`b`b`b`d`d`.`#`.```.```.`````````````.`````.`#`.```.```.```#`#",
"`q`q`q`q`q`o`q`p`o`o`q`q`q`q`q`q`#`#`#`m`m`j`r`k`j`j`````c`c`c`c`c`b`b`b`d`d```#`.`.```````````````````````.```#`.`.`````````#`#",
"`q`q`q`q`q`q`q`o`q`s`q`s`s`s`s`s`s`q`m`m`m`m`m`j```````````````````````````````.```````````````````````````````.`````````````.`#",
"`q`s`s`s`s`s`t`t`s`s`s`s`s`s`s`s`s`q`m`m`m`m`j`j`n```````````````````````````.`.`````````````````````````````.`.`````````````#`#",
"`s`s`s`s`s`s`t`u`s`s`s`s`s`s`s`v`v`v`m`m`m`m`j`w`n```````````````````````````.`#`````````````````````````````.`#`````````````.`#",
"`s`s`s`s`s`s`t`u`t`s`t`s`s`s`s`v`v`m`m`m`m`m`j`w`x```.```````````````````````.`#`.```.```````````````````````.`#`.```.```````.`#",
"`s`s`s`s`t`t`u`u`u`t`s`t`s`s`s`v`v`m`m`m`j`j`w`k`k`x```.`````````````````.`.`#`#`#`.```.`````````````````.`.`#`#`#`.```.`````.`a",
"`s`s`t`t`u`u`u`u`u`u`u`u`u`u`o`o`v`m`y`y`w`w`w`k`z`z`#`#`#`#`.`.`````.`.`#`#`#`#`#`#`#`#`#`#`.`.`````.`.`#`#`#`#`#`#`#`#`#`#`a`a",
"`s`s`s`s`s`s`s`s`s`t`t`u`u`t`s`v`v`m`m`m`m`m`m`m`n`x`.`#`#`.```````````````````````.`.`#`#`.```````````````````````.`.`#`#`.`#`#",
"`s`s`s`s`s`s`s`s`s`s`s`t`u`s`s`s`v`m`m`m`m`m`m`m`n`````.`#`````````````````````````````.`#`````````````````````````````.`#```#`#",
"`q`q`q`q`q`q`q`s`s`s`s`s`t`s`s`s`m`m`m`m`m`m`m`m`r```````.```````````````````````````````.```````````````````````````````.```.`#",
"`q`q`q`q`q`t`s`s`s`s`A`t`t`s`s`s`m`m`m`m`m`j`m`m`m`````.`.`````````````````.```````````.`.`````````````````.```````````.`.```#`.",
"`q`q`q`q`o`q`t`s`s`t`A`t`B`A`s`s`m`m`m`m`y`m`j`m`m`x```.`#```````````````.```.`````.```.`#```````````````.```.`````.```.`#```.`#",
"`q`o`o`o`o`C`C`t`t`u`t`B`B`t`s`s`m`g`y`y`j`j`j`j`j`D`.`#`#`.```````.`.`.`.`.`.`.`.`#`.`#`#`.```````.`.`.`.`.`.`.`.`#`.`#`#`.`#`#",
"`o`o`o`p`o`o`E`u`u`u`F`B`B`B`u`p`o`e`y`G`y`j`k`l`l`D`#`#`#`#`#`#`.`.`.`#`.`.`#`#`#`#`#`#`#`#`#`#`.`.`.`#`.`.`#`#`#`#`#`#`#`#`#`a",
"`q`q`H`H`o`o`E`u`u`t`t`t`A`t`s`s`q`m`m`m`j`j`k`k`l`.`.`.```.`````````````.`.`#`#`#`.`.`.```.`````````````.`.`#`#`#`.`.`.```.`.`#",
"`q`q`q`o`q`q`o`E`t`s`t`s`t`A`A`A`I`m`m`y`q`m`j`k`j`r`.```.`````````````.`````.`#`.```.```.`````````````.`````.`#`.```.```.```#`#"
};
