/* XPM */
static char *floor_xpm[] = {
/* width height num_colors chars_per_pixel */
"    64    64      256            2",
/* colors */
"`` c #742a81",
"`. c #5b276d",
"`# c #42195d",
"`a c #2a2640",
"`b c #5d286f",
"`c c #461b60",
"`d c #5d276f",
"`e c #461a60",
"`f c #451a5f",
"`g c #5d286e",
"`h c #5c286e",
"`i c #441a5e",
"`j c #5c276e",
"`k c #431a5e",
"`l c #43195e",
"`m c #752a82",
"`n c #752a81",
"`o c #5e286f",
"`p c #471b60",
"`q c #752b81",
"`r c #752b82",
"`s c #742a82",
"`t c #762b82",
"`u c #5f2870",
"`v c #481b61",
"`w c #762a82",
"`x c #5c276d",
"`y c #5d276e",
"`z c #431a5d",
"`A c #762b83",
"`B c #491b62",
"`C c #5e2870",
"`D c #43195d",
"`E c #471b61",
"`F c #481b62",
"`G c #451a5e",
"`H c #752b83",
"`I c #000000",
"`J c #000000",
"`K c #000000",
"`L c #000000",
"`M c #000000",
"`N c #000000",
"`O c #000000",
"`P c #000000",
"`Q c #000000",
"`R c #000000",
"`S c #000000",
"`T c #000000",
"`U c #000000",
"`V c #000000",
"`W c #000000",
"`X c #000000",
"`Y c #000000",
"`Z c #000000",
"`0 c #000000",
"`1 c #000000",
"`2 c #000000",
"`3 c #000000",
"`4 c #000000",
"`5 c #000000",
"`6 c #000000",
"`7 c #000000",
"`8 c #000000",
".` c #000000",
".. c #000000",
".# c #000000",
".a c #000000",
".b c #000000",
".c c #000000",
".d c #000000",
".e c #000000",
".f c #000000",
".g c #000000",
".h c #000000",
".i c #000000",
".j c #000000",
".k c #000000",
".l c #000000",
".m c #000000",
".n c #000000",
".o c #000000",
".p c #000000",
".q c #000000",
".r c #000000",
".s c #000000",
".t c #000000",
".u c #000000",
".v c #000000",
".w c #000000",
".x c #000000",
".y c #000000",
".z c #000000",
".A c #000000",
".B c #000000",
".C c #000000",
".D c #000000",
".E c #000000",
".F c #000000",
".G c #000000",
".H c #000000",
".I c #000000",
".J c #000000",
".K c #000000",
".L c #000000",
".M c #000000",
".N c #000000",
".O c #000000",
".P c #000000",
".Q c #000000",
".R c #000000",
".S c #000000",
".T c #000000",
".U c #000000",
".V c #000000",
".W c #000000",
".X c #000000",
".Y c #000000",
".Z c #000000",
".0 c #000000",
".1 c #000000",
".2 c #000000",
".3 c #000000",
".4 c #000000",
".5 c #000000",
".6 c #000000",
".7 c #000000",
".8 c #000000",
"#` c #000000",
"#. c #000000",
"## c #000000",
"#a c #000000",
"#b c #000000",
"#c c #000000",
"#d c #000000",
"#e c #000000",
"#f c #000000",
"#g c #000000",
"#h c #000000",
"#i c #000000",
"#j c #000000",
"#k c #000000",
"#l c #000000",
"#m c #000000",
"#n c #000000",
"#o c #000000",
"#p c #000000",
"#q c #000000",
"#r c #000000",
"#s c #000000",
"#t c #000000",
"#u c #000000",
"#v c #000000",
"#w c #000000",
"#x c #000000",
"#y c #000000",
"#z c #000000",
"#A c #000000",
"#B c #000000",
"#C c #000000",
"#D c #000000",
"#E c #000000",
"#F c #000000",
"#G c #000000",
"#H c #000000",
"#I c #000000",
"#J c #000000",
"#K c #000000",
"#L c #000000",
"#M c #000000",
"#N c #000000",
"#O c #000000",
"#P c #000000",
"#Q c #000000",
"#R c #000000",
"#S c #000000",
"#T c #000000",
"#U c #000000",
"#V c #000000",
"#W c #000000",
"#X c #000000",
"#Y c #000000",
"#Z c #000000",
"#0 c #000000",
"#1 c #000000",
"#2 c #000000",
"#3 c #000000",
"#4 c #000000",
"#5 c #000000",
"#6 c #000000",
"#7 c #000000",
"#8 c #000000",
"a` c #000000",
"a. c #000000",
"a# c #000000",
"aa c #000000",
"ab c #000000",
"ac c #000000",
"ad c #000000",
"ae c #000000",
"af c #000000",
"ag c #000000",
"ah c #000000",
"ai c #000000",
"aj c #000000",
"ak c #000000",
"al c #000000",
"am c #000000",
"an c #000000",
"ao c #000000",
"ap c #000000",
"aq c #000000",
"ar c #000000",
"as c #000000",
"at c #000000",
"au c #000000",
"av c #000000",
"aw c #000000",
"ax c #000000",
"ay c #000000",
"az c #000000",
"aA c #000000",
"aB c #000000",
"aC c #000000",
"aD c #000000",
"aE c #000000",
"aF c #000000",
"aG c #000000",
"aH c #000000",
"aI c #000000",
"aJ c #000000",
"aK c #000000",
"aL c #000000",
"aM c #000000",
"aN c #000000",
"aO c #000000",
"aP c #000000",
"aQ c #000000",
"aR c #000000",
"aS c #000000",
"aT c #000000",
"aU c #000000",
"aV c #000000",
"aW c #000000",
"aX c #000000",
"aY c #000000",
"aZ c #000000",
"a0 c #000000",
"a1 c #000000",
"a2 c #000000",
"a3 c #000000",
"a4 c #000000",
"a5 c #000000",
"a6 c #000000",
"a7 c #000000",
"a8 c #000000",
/* pixels */
"```````````.```#`.`.```````````````````````.```#`.`.```````````````````````.```#`.`.```````````````````````.```#`.`.`````````#`#",
"```````````````.```````````````````````````````.```````````````````````````````.```````````````````````````````.`````````````.`#",
"`````````````.`.`````````````````````````````.`.`````````````````````````````.`.`````````````````````````````.`.`````````````#`#",
"`````````````.`#`````````````````````````````.`#`````````````````````````````.`#`````````````````````````````.`#`````````````.`#",
"`````````````.`#`.```.```````````````````````.`#`.```.```````````````````````.`#`.```.```````````````````````.`#`.```.```````.`#",
"`````````.`.`#`#`#`.```.`````````````````.`.`#`#`#`.```.`````````````````.`.`#`#`#`.```.`````````````````.`.`#`#`#`.```.`````.`a",
"`````.`.`#`#`#`#`#`#`#`#`#`#`.`.`````.`.`#`#`#`#`#`#`#`#`#`#`.`.`````.`.`#`#`#`#`#`#`#`#`#`#`.`.`````.`.`#`#`#`#`#`#`#`#`#`#`a`a",
"```````````````````.`.`#`#`.```````````````````````.`.`#`#`.```````````````````````.`.`#`#`.```````````````````````.`.`#`#`.`#`#",
"```````````````````````.`#`````````````````````````````.`#`````````````````````````````.`#`````````````````````````````.`#```#`#",
"`````````````````````````.```````````````````````````````.```````````````````````````````.```````````````````````````````.```.`#",
"```````````.```````````.`.`````````````````.```````````.`.`````````````````.```````````.`.`````````````````.```````````.`.```#`.",
"`````````.```.`````.```.`#```````````````.```.`````.```.`#```````````````.```.`````.```.`#```````````````.```.`````.```.`#```.`#",
"```.`.`.`.`.`.`.`.`#`.`#`#`.```````.`.`.`.`.`.`.`.`#`.`#`#`.```````.`.`.`.`.`.`.`.`#`.`#`#`.```````.`.`.`.`.`.`.`.`#`.`#`#`.`#`#",
"`.`.`.`#`.`.`#`#`#`#`#`#`#`#`#`#`.`.`.`#`.`.`#`#`#`#`#`#`#`#`#`#`.`.`.`#`.`.`#`#`#`#`#`#`#`#`#`#`.`.`.`#`.`.`#`#`#`#`#`#`#`#`#`a",
"`````````.`.`#`#`#`.`.`.```.`````````````.`.`#`#`#`.`.`.```.`````````````.`.`#`#`#`.`.`.```.`````````````.`.`#`#`#`.`.`.```.`.`#",
"```````.`````.`#`.```.```.`````````````.`````.`#`.```.```.`````````````.`````.`#`.```.```.`````````````.`````.`#`.```.```.```#`#",
"```````````.```#`.`.```````````````````````.```#`.`.```````````````````````.```#`.`.```````````````````````.```#`.`.`````````#`#",
"```````````````.```````````````````````````````.```````````````````````````````.```````````````````````````````.`````````````.`#",
"`````````````.`.`````````````````````````````.`.`````````````````````````````.`.`````````````````````````````.`.`````````````#`#",
"`````````````.`#`````````````````````````````.`#`````````````````````````````.`#`````````````````````````````.`#`````````````.`#",
"`````````````.`#`.```.```````````````````````.`#`.```.```````````````````````.`#`.```.```````````````````````.`#`.```.```````.`#",
"`````````.`.`#`#`#`.```.`````````````````.`.`#`#`#`.```.`````````````````.`.`#`#`#`.```.`````````````````.`.`#`#`#`.```.`````.`a",
"`````.`.`#`#`#`#`#`#`#`#`#`#`.`.`````.`.`#`#`#`#`#`#`#`#`#`#`.`.`````.`.`#`#`#`#`#`#`#`#`#`#`.`.`````.`.`#`#`#`#`#`#`#`#`#`#`a`a",
"```````````````````.`.`#`#`.```````````````````````.`.`#`#`.```````````````````````.`.`#`#`.```````````````````````.`.`#`#`.`#`#",
"```````````````````````.`#`````````````````````````````.`#`````````````````````````````.`#`````````````````````````````.`#```#`#",
"`````````````````````````.```````````````````````````````.```````````````````````````````.```````````````````````````````.```.`#",
"```````````.```````````.`.`````````````````.```````````.`.`````````````````.```````````.`.`````````````````.```````````.`.```#`.",
"`````````.```.`````.```.`#```````````````.```.`````.```.`#```````````````.```.`````.```.`#```````````````.```.`````.```.`#```.`#",
"```.`.`.`.`.`.`.`.`#`.`#`#`.```````.`.`.`.`.`.`.`.`#`.`#`#`.```````.`.`.`.`.`.`.`.`#`.`#`#`.```````.`.`.`.`.`.`.`.`#`.`#`#`.`#`#",
"`.`.`.`#`.`.`#`#`#`#`#`#`#`#`#`#`.`.`.`#`.`.`#`#`#`#`#`#`#`#`#`#`.`.`.`#`.`.`#`#`#`#`#`#`#`#`#`#`.`.`.`#`.`.`#`#`#`#`#`#`#`#`#`a",
"`````````.`.`#`#`#`.`.`.```.`````````````.`.`#`#`#`.`.`.```.`````````````.`.`#`#`#`.`.`.```.`````````````.`.`#`#`#`.`.`.```.`.`#",
"```````.`````.`#`.```.```.`````````````.`````.`#`.```.```.`````````````.`````.`#`.```.```.`````````````.`````.`#`.```.```.```#`#",
"```````````.```#`.`.```````````````````````.```#`.`.```````````````````````.```#`.`.```````````````````````.```#`.`.`````````#`#",
"```````````````.```````````````````````````````.```````````````````````````````.```````````````````````````````.`````````````.`#",
"`````````````.`.`````````````````````````````.`.`````````````````````````````.`.`````````````````````````````.`.`````````````#`#",
"`````````````.`#`````````````````````````````.`#`````````````````````````````.`#`````````````````````````````.`#`````````````.`#",
"`````````````.`#`.```.```````````````````````.`#`.```.```````````````````````.`#`.```.```````````````````````.`#`.```.```````.`#",
"`````````.`.`#`#`#`.```.`````````````````.`.`#`#`#`.```.`````````````````.`.`#`#`#`.```.`````````````````.`.`#`#`#`.```.`````.`a",
"`````.`.`#`#`#`#`#`#`#`#`#`#`.`.`````.`.`#`#`#`#`#`#`#`#`#`#`.`.`````.`.`#`#`#`#`#`#`#`#`#`#`.`.`````.`.`#`#`#`#`#`#`#`#`#`#`a`a",
"```````````````````.`.`#`#`.```````````````````````.`.`#`#`.```````````````````````.`.`#`#`.```````````````````````.`.`#`#`.`#`#",
"```````````````````````.`#`````````````````````````````.`#`````````````````````````````.`#`````````````````````````````.`#```#`#",
"`````````````````````````.```````````````````````````````.```````````````````````````````.```````````````````````````````.```.`#",
"```````````.```````````.`.`````````````````.```````````.`.`````````````````.```````````.`.`````````````````.```````````.`.```#`.",
"`````````.```.`````.```.`#```````````````.```.`````.```.`#```````````````.```.`````.```.`#```````````````.```.`````.```.`#```.`#",
"```.`.`.`.`.`.`.`.`#`.`#`#`.```````.`.`.`.`.`.`.`.`#`.`#`#`.```````.`.`.`.`.`.`.`.`#`.`#`#`.```````.`.`.`.`.`.`.`.`#`.`#`#`.`#`#",
"`b`b`b`c`b`d`c`c`c`c`e`f`f`f`f`f`g`g`h`i`j`j`k`k`k`l`#`#`#`#`#`#`.`.`.`#`.`.`#`#`#`#`#`#`#`#`#`#`.`.`.`#`.`.`#`#`#`#`#`#`#`#`#`a",
"`m`````n`o`o`p`c`c`b`b`b`m`b`q`r`r`m`m`s`j`j`k`k`k`.`.`.```.`````````````.`.`#`#`#`.`.`.```.`````````````.`.`#`#`#`.`.`.```.`.`#",
"`m`m`m`o`m`m`o`p`o`r`o`r`o`r`r`r`r`r`m`j`s`s`j`k`j```.```.`````````````.`````.`#`.```.```.`````````````.`````.`#`.```.```.```#`#",
"`r`r`r`r`r`o`r`p`o`o`r`r`r`r`r`r`r`r`m`m`m`j`s`k`j`j```````````````````````.```#`.`.```````````````````````.```#`.`.`````````#`#",
"`r`r`r`r`r`r`r`o`r`t`r`t`t`t`t`t`t`r`m`m`m`m`m`j```````````````````````````````.```````````````````````````````.`````````````.`#",
"`r`t`t`t`t`t`u`u`t`t`t`t`t`t`t`t`t`r`m`m`m`m`j`j`n```````````````````````````.`.`````````````````````````````.`.`````````````#`#",
"`t`t`t`t`t`t`u`v`t`t`t`t`t`t`t`w`w`w`m`m`m`m`j`i`n```````````````````````````.`#`````````````````````````````.`#`````````````.`#",
"`t`t`t`t`t`t`u`v`u`t`u`t`t`t`t`w`w`m`m`m`m`m`j`i`x```.```````````````````````.`#`.```.```````````````````````.`#`.```.```````.`#",
"`t`t`t`t`u`u`v`v`v`u`t`u`t`t`t`w`w`m`m`m`j`j`i`k`k`x```.`````````````````.`.`#`#`#`.```.`````````````````.`.`#`#`#`.```.`````.`a",
"`t`t`u`u`v`v`v`v`v`v`v`v`v`v`o`o`w`m`y`y`i`i`i`k`z`z`#`#`#`#`.`.`````.`.`#`#`#`#`#`#`#`#`#`#`.`.`````.`.`#`#`#`#`#`#`#`#`#`#`a`a",
"`t`t`t`t`t`t`t`t`t`u`u`v`v`u`t`w`w`m`m`m`m`m`m`m`n`x`.`#`#`.```````````````````````.`.`#`#`.```````````````````````.`.`#`#`.`#`#",
"`t`t`t`t`t`t`t`t`t`t`t`u`v`t`t`t`w`m`m`m`m`m`m`m`n`````.`#`````````````````````````````.`#`````````````````````````````.`#```#`#",
"`r`r`r`r`r`r`r`t`t`t`t`t`u`t`t`t`m`m`m`m`m`m`m`m`s```````.```````````````````````````````.```````````````````````````````.```.`#",
"`r`r`r`r`r`u`t`t`t`t`A`u`u`t`t`t`m`m`m`m`m`j`m`m`m`````.`.`````````````````.```````````.`.`````````````````.```````````.`.```#`.",
"`r`r`r`r`o`r`u`t`t`u`A`u`B`A`t`t`m`m`m`m`y`m`j`m`m`x```.`#```````````````.```.`````.```.`#```````````````.```.`````.```.`#```.`#",
"`r`o`o`o`o`C`C`u`u`v`u`B`B`u`t`t`m`d`y`y`j`j`j`j`j`D`.`#`#`.```````.`.`.`.`.`.`.`.`#`.`#`#`.```````.`.`.`.`.`.`.`.`#`.`#`#`.`#`#",
"`o`o`o`p`o`o`E`v`v`v`F`B`B`B`v`p`o`b`y`G`y`j`k`l`l`D`#`#`#`#`#`#`.`.`.`#`.`.`#`#`#`#`#`#`#`#`#`#`.`.`.`#`.`.`#`#`#`#`#`#`#`#`#`a",
"`r`r`q`q`o`o`E`v`v`u`u`u`A`u`t`t`r`m`m`m`j`j`k`k`l`.`.`.```.`````````````.`.`#`#`#`.`.`.```.`````````````.`.`#`#`#`.`.`.```.`.`#",
"`r`r`r`o`r`r`o`E`u`t`u`t`u`A`A`A`H`m`m`y`r`m`j`k`j`s`.```.`````````````.`````.`#`.```.```.`````````````.`````.`#`.```.```.```#`#"
};
