/* XPM */
static char *c7181dee6dd64a78fd8e9db893882ab49k2OHgyxPvCOqEAR[] = {
/* columns rows colors chars-per-pixel */
"48 58 24 1 ",
"  c None",
". c #171A0F",
"X c #3A1F1D",
"o c #243117",
"O c #302D21",
"+ c #3D3734",
"@ c #364922",
"# c #4E5332",
"$ c #6B3840",
"% c #62784A",
"& c #796E67",
"* c #80592D",
"= c #8D4953",
"- c #B34D5C",
"; c #AB7B44",
": c #BD7247",
"> c #A47556",
", c #84AE56",
"< c #9F8965",
"1 c #CD9757",
"2 c #E2B179",
"3 c #9C8C81",
"4 c #E6DAAD",
"5 c #FDFFD6",
/* pixels */
"          %                          %          ",
"         .%%                        %%.         ",
"         .#%%                      %%#.         ",
"        .###%%                    %%###.        ",
"        .###%%%                  %%%###.        ",
"        .####%%%                %%%####.        ",
"       .o#####%%%              %%%#####o.       ",
"       .o#####%%%%%%%%%%%%%%%%%%%%#####o.       ",
"       .o######%%%%%%%%%%%%%%%%%%######o.       ",
"       .o######%%##############%%######o.       ",
"       .o###o#%##################%#####o.       ",
"       .oo#o%######################o###o.       ",
"       .ooo%#######################%o#oo.       ",
"       .ooo%########################%ooo.       ",
"        .o%########%%%%%%%%%%#######%oo.        ",
"        ..#######%%++++<<<+++%%######%..        ",
"        .######%%<<<++<<<<<++++%%######.        ",
"       .######%::<<<<<<<<<<<+++++%######.       ",
"       .#####%::<<<4OO4444OO<+++++%#####.       ",
"      .######%**;;14444444444&&+++%######.      ",
"     .#######%::11;14444444444&&+<%#######.     ",
"    .#######::11OO,@54444445@,OO44<.#######.    ",
"   .oo#####.*;;;;,,@,544445,@,,5544<.#####oo.   ",
"    ..oo###.:11112,@,,4444,,@,54444<.###oo..    ",
"      ..oooo.*;;;12444455444444444<.oooo..      ",
"        ..ooo.:11444444OO44444444<.ooo..        ",
"          .....<4444444444444444<.....          ",
"               ...444444444444...               ",
"                  ............                  ",
"                 .ooX$$XX$$Xoo.                 ",
"                .ooX-=$XX$=-Xoo.       45       ",
"               .ooX--=X<<X=--Xoo.     4445      ",
"              .oooX-=$X<<X$=-Xooo.     445      ",
"              .oooX$$X<<<<X$$Xooo.     <44      ",
"             .###ooXX<<44<:XXoo###.    <44      ",
"             .####o.<<4444::.o####.    <4<      ",
"            .#####.<<444441:*.#####.  O44       ",
"            .####.<<4444411*::.####.OO<<O       ",
"           .#####.<444444;;11*.#####.<<O        ",
"           .#####.444444411;;1.#####.<O         ",
"           .####.44<44444441:11.####.O          ",
"          .o####.44<445<<544<44.####o.          ",
"          .o####.44<O45<<54O<44.####o.          ",
"         .oo####.444O55OO55O444.####oo.         ",
"        .oo#####.144<O5OO5O<444.#####oo.        ",
"       .o######.*;;44<OOOO<4444<.#####oo.       ",
"      .#####o##.:14444<<<<44444<.##o####o.      ",
"    ..#########.>44444444444444<.#########..    ",
"  ..####o######.<44444444444444<.######o####..  ",
" .#########o###.<444444444&&444<.###o#########. ",
".#####o########.<4444444&&&&444<o########o#####.",
" ..##o####o####o.444445533&&444.o####o####o##.. ",
"   ..oo##oo####o.44444<<++&&&44.o####oo##oo..   ",
"     ..ooooooooo.<444<OOOO+&&4<.ooooooooo..     ",
"       ...oooooo.<<44O    O&&<<.oooooo...       ",
"          ...... O<<<O    O++<O ......          ",
"                 O555O    O555O                 ",
"                  OOO      OOO                  "
};
