/* XPM */
static char *_965c4408bc94e27a390cbca7d79c64bQL7TUTa6UGjJLiaq[] = {
/* columns rows colors chars-per-pixel */
"16 16 5 1 ",
"  c #29243F",
". c #2A2640",
"X c #49436D",
"o c #595483",
"O c #797DC6",
/* pixels */
"XOoooooooooooooX",
"XooooooooooooooX",
".Xoooooooooooooo",
".XXXXoooXooooXXX",
"................",
"oooooooX.Xoooooo",
"oooooooo.ooooooo",
"oXooXoXo.XXoXooo",
".XXXXXXX.XXXXXXX",
"................",
".oXoooXoooooXooo",
".XXXXXXXXXXXXXXX",
"....X.XX.XX...X.",
"................",
"XXXXXXoX ooXXXXX",
"................"
};
